<svg version="1.2" xmlns="http://www.w3.org/2000/svg" viewBox="0 0 411 132" width="411" height="132"><defs><clipPath clipPathUnits="userSpaceOnUse" id="cp1"><path d="m5.8 22.84c4.35 0 19.7-1.99 26.2 0.09 6.5 2.07 8 3.57 17-0.93 3.85 0.45 8.5 2.49 16 0 1.46 0.05 2.81 0.76 4.17 1.47l4.33 1.53c2.78 0.06 7-2.07 9-3 6 2.5 11 2.5 13 0.93 12.5 7 6.5-3.93 15.2-3.93 8.7 0 13.05 4.27 13.05 4.27l7.25 7.26v84.58l-8.7 4.27h-112.63l-9.67-5.98v-91.84z"/></clipPath><linearGradient id="P" gradientUnits="userSpaceOnUse"/><radialGradient id="g1" cx="0" cy="0" r="1" href="#P" gradientTransform="matrix(71.684,113.945,-113.945,71.684,54.963,21.59)"><stop stop-color="#bedfff"/><stop offset="1" stop-color="#fff"/></radialGradient><clipPath clipPathUnits="userSpaceOnUse" id="cp2"><path d="m27 29h70v73h-70z"/></clipPath><linearGradient id="g2" x2="1" href="#P" gradientTransform="matrix(-0.206,-0.384,.437,-0.234,55.752,68.322)"><stop stop-color="#250d00"/><stop offset="1" stop-color="#3c1c00"/></linearGradient><linearGradient id="g3" x2="1" href="#P" gradientTransform="matrix(.456,.236,-0.378,.732,73.088,31.876)"><stop stop-opacity=".91"/><stop offset="1" stop-opacity=".96"/></linearGradient><linearGradient id="g4" x2="1" href="#P" gradientTransform="matrix(.811,1.274,-0.808,.514,45.512,42.923)"><stop stop-color="#877827"/><stop offset="1" stop-color="#af943e"/></linearGradient><linearGradient id="g5" x2="1" href="#P" gradientTransform="matrix(1.059,1.131,-0.671,.628,80.563,54.76)"><stop stop-color="#86650f"/><stop offset="1" stop-color="#9e7f21"/></linearGradient><linearGradient id="g6" x2="1" href="#P" gradientTransform="matrix(-1.002,-2.14,5.724,-2.681,58.952,71.745)"><stop stop-color="#a3a3a0"/><stop offset="1" stop-color="#d6d5dc"/></linearGradient><linearGradient id="g7" x2="1" href="#P" gradientTransform="matrix(-2.764,3.079,-3.12,-2.801,48.349,75.487)"><stop stop-color="#5b450a"/><stop offset="1" stop-color="#957d27"/></linearGradient><linearGradient id="g8" x2="1" href="#P" gradientTransform="matrix(2.528,3.31,-2.64,2.016,78.575,79.82)"><stop stop-color="#9a851a"/><stop offset="1" stop-color="#deb443"/></linearGradient><linearGradient id="g9" x2="1" href="#P" gradientTransform="matrix(-1.665,-0.747,1.568,-3.495,36.392,66.21)"><stop stop-color="#765f19"/><stop offset="1" stop-color="#9c7d1c"/></linearGradient><linearGradient id="g10" x2="1" href="#P" gradientTransform="matrix(4.752,-4.702,3.686,3.726,45.402,75.237)"><stop stop-color="#6c5a16"/><stop offset="1" stop-color="#b18d22"/></linearGradient><linearGradient id="g11" x2="1" href="#P" gradientTransform="matrix(-7.438,2.035,-1.579,-5.773,87.104,65.888)"><stop stop-color="#83630f"/><stop offset="1" stop-color="#d3b139"/></linearGradient><linearGradient id="g12" x2="1" href="#P" gradientTransform="matrix(5.317,-5,6.345,6.747,81.46,44.646)"><stop stop-color="#f4d67d"/><stop offset="1" stop-color="#f3ee9a"/></linearGradient><linearGradient id="g13" x2="1" href="#P" gradientTransform="matrix(-16.867,.421,-0.357,-14.298,77.828,75.477)"><stop stop-color="#907419"/><stop offset="1" stop-color="#f0ce4b"/></linearGradient><linearGradient id="g14" x2="1" href="#P" gradientTransform="matrix(-1.129,1.535,-1.899,-1.397,69.581,75.289)"><stop stop-color="#734c01"/><stop offset="1" stop-color="#573f12"/></linearGradient><linearGradient id="g15" x2="1" href="#P" gradientTransform="matrix(3.19,.073,-0.099,4.339,47.883,47.59)"><stop stop-color="#0c0302"/><stop offset="1" stop-color="#4e340c"/></linearGradient><linearGradient id="g16" x2="1" href="#P" gradientTransform="matrix(7,15,-31.865,14.871,52,11)"><stop stop-color="#535353"/><stop offset=".42" stop-color="#efefef"/><stop offset="1" stop-color="#535353"/></linearGradient></defs><style>.a{fill:none}.b{fill:none;stroke:#fff;stroke-width:2}.c{fill:url(#g1)}.d{fill:none;stroke:#535353}.e{fill:#060606}.f{fill:#886f17}.g{fill:#c0bdbe}.h{fill:#573f04}.i{fill:#907a25}.j{fill:#404244}.k{opacity:.99;fill:#907a25}.l{fill:#26272c}.m{fill:#221608}.n{fill:#c6a232}.o{fill:#80848b}.p{fill:#6e5915}.q{opacity:.99;fill:#573f04}.r{fill:#3c3c2f}.s{fill:#51565e}.t{fill:#686867}.u{fill:url(#g2)}.v{fill:#322c15}.w{fill:#9a9ea2}.x{fill:url(#g3)}.y{fill:#7e671a}.z{fill:#a48524}.A{fill:#eed984}.B{fill:url(#g4)}.C{fill:#2e2813}.D{fill:#3b1f08}.E{opacity:.95;fill:#060606}.F{fill:#dab740}.G{fill:#f6f6f7}.H{fill:url(#g5)}.I{fill:url(#g6)}.J{fill:url(#g7)}.K{fill:url(#g8)}.L{fill:url(#g9)}.M{fill:#ffd138}.N{fill:url(#g10)}.O{fill:url(#g11)}.P{fill:url(#g12)}.Q{fill:url(#g13)}.R{fill:url(#g14)}.S{fill:url(#g15)}.T{fill:none;stroke:#000}.U{fill:#161616}.V{fill:#ffd138;stroke:#000}.W{stroke:#000}.X{fill:none;stroke:#fff;stroke-width:1.5}.Y{fill:none;stroke:url(#g16)}</style><path fill-rule="evenodd" class="a" d="m0 0h411v132h-411z"/><path class="a" d="m113.1 60.3c0 27.9-22.6 50.6-50.6 50.6-27.9 0-50.6-22.7-50.6-50.6 0-20.7 12.4-38.5 30.1-46.3 14 0 29 0 41 0 17.8 7.8 30.1 25.6 30.1 46.3z"/><path class="b" d="m118 62.2c0 29.7-24 53.8-53.5 53.8-29.5 0-53.5-24.1-53.5-53.8 0-21.9 13-40.8 31.6-49.2h43.8c18.6 8.4 31.6 27.3 31.6 49.2z"/><g clip-path="url(#cp1)"><path fill-rule="evenodd" class="c" d="m64.5 115c-29.6 0-53.5-23.9-53.5-53.5 0-29.6 23.9-53.5 53.5-53.5 29.6 0 53.5 23.9 53.5 53.5 0 29.6-23.9 53.5-53.5 53.5z"/></g><path class="b" d="m65 23c0 0-7.5 6.5-16.1 0-6.9 5-13.4 4-18.9 0l5.5-3.5 23.5 2h17.5l18-2.5 4 4c-2.5 1-7.5 6.5-16 0-9.5 7-17.5 0-17.5 0z"/><path class="d" d="m118.5 62.2c0 30-24.2 54.3-54 54.3-29.8 0-54-24.3-54-54.3 0-19.2 9.8-36 24.7-45.7 6.5-0.3 16.7-0.3 27.5-0.3 10.7 0 21.9 0 30.2-0.3 15.4 9.6 25.6 26.7 25.6 46.3z"/><g clip-path="url(#cp2)"><path class="e" d="m27 29h32.9 0.3 36.8v31.6 0.3 14.7 0.5 25.8q0 0 0 0c-0.4 0.2-12 0.1-13.2 0.1h-27.6-5.9c-0.6 0-2.3 0.1-2.8-0.1-0.1 0.1-0.2 0.1-0.4 0q-0.1 0.1-0.2 0.1c-0.4 0.1-0.9 0-1.3 0h-3.2-11.9c-0.5 0-3.2 0.1-3.5-0.1v-46.2-4.4zm0 22.3v4.4 46.2c0.3 0.2 3 0.1 3.5 0.1h11.9 3.2c0.4 0 0.9 0.1 1.3 0q0.1 0 0.2-0.1c0.2 0.1 0.3 0.1 0.4 0.1v-0.1q0 0 0 0-0.1-0.1-0.1-0.2c0-0.1-0.1-0.2-0.1-0.4 0-0.3 0-0.8-0.1-1.1-0.2-0.4-0.1-1.3-0.2-1.8l-0.6-4.4c0-0.5-0.2-1-0.2-1.6-0.1-0.2 0-0.4 0-0.6-0.1-0.7-0.3-1.5-0.4-2.2 0-0.3 0.1-0.5 0.2-0.8 0-0.2 0-0.4 0-0.6 0-0.9-0.2-1.9-0.4-2.8-0.1-0.9-0.2-1.9 0.1-2.7 0.1-0.2 0.4-0.2 0.6-0.3 0.7-0.1 4.4-0.6 4.7-0.9 0.1-0.1 0.2-0.2 0.2-0.4 0-0.3-0.3-0.6-0.6-0.8l-0.2-0.3-0.1 0.1v0.2h-0.1q0 0 0-0.1c-0.4-0.3-1.1-0.5-1.6-0.5-0.6 0.1-3.9 1.8-4.3 2.3q0 0-0.1 0.1c-0.1 0.1-0.1 0-0.3 0l-0.1 0.1c-0.3 0.3-1.1 1-1.5 1 0 0 0 0-0.1-0.1-0.1-0.5 0.9-2.4 1.2-2.9l-0.1-0.1c-0.2 0-0.1 0.2-0.3 0.2 0-0.2 0-0.2 0.1-0.4 0-0.4-0.4-2-0.7-2.3-0.2-0.2-0.8-0.2-0.9-0.5 0.1 0 0.2 0 0.3 0 0.3-0.1 0.4-0.2 0.5-0.4-0.6 0.1-2.1 0.7-2.6 0.5 0-0.1 0-0.1-0.1-0.2 0.3-0.7 1.8-1.6 2.2-2.3q0.1 0 0.1 0c0-0.1 0-0.2 0-0.3-0.5-0.2-0.9 0.9-1.2 1q0-0.2 0-0.4c-0.3-0.8-0.9-1.3-1.4-1.9 0-0.2 0.1-0.1 0.2-0.2-0.4 0-0.9 0.2-1.4 0.2q-1 0.2-2.1 0.4c-0.2 0-0.6 0.1-0.8 0-0.1 0-0.1 0-0.2-0.1 0.1-0.3 0.9-0.7 1.1-0.9 0.9-0.5 1.5-1.2 2.2-1.9 0.6-0.5 1.2-1 1.7-1.5v-0.1c-0.3 0.1-0.6 0.6-0.9 0.8v-0.1c0-0.3 0.2-0.6 0.2-0.9 0.1-0.9-0.1-1.5-0.8-2.2-0.1-0.1-0.2-0.2-0.4-0.3-0.2-0.1-0.6 0-0.8-0.2 0-0.2 0.4-0.6 0.5-0.8-0.1 0.1-0.4 0.2-0.6 0.3v0.1c-0.1 0-0.1 0-0.1 0q-0.2 0.6-0.5 1.2c-0.1 0-0.3 0.1-0.3 0.2-0.1 0.2-0.1 0.6-0.1 0.8-0.3 0.9-0.9 2-1.5 2.8-0.6 0.6-1.6 1.2-2.5 1.3-0.9 0-2.1-0.6-2.8-1.1-0.4-0.4-0.7-0.8-0.9-1.3-1.1-1.7-1.2-3.5-1.3-5.5 0.8 0.5 1.3 1.7 2.4 1.9l0.4 0.1q0.3-0.1 0.5-0.3c0.7-0.3 1.3-1.1 1.6-1.9 0.5-1.9 0.6-8-0.4-9.7q0 0 0 0c-0.5-0.5-0.9-0.6-1.5-0.6-0.9 0.6-1.4 1.7-1.9 2.7 0 0.1-0.1 0.4-0.2 0.5q0 0-0.1 0-0.2-0.1-0.3-0.3c-0.6-0.8 0-2.9 0.3-3.9 0.2-0.7 0.6-1.3 0.9-1.9v-0.1l0.1-0.1q-0.1-0.1-0.3-0.1c0-0.1 0-0.1 0-0.2-0.4 0-1.1 0.5-1.4 0.8q-0.1 0.1-0.1 0.1-0.1 0.1-0.2 0.2zm0-22.3v22.3q0.1-0.1 0.2-0.2 0 0 0.1-0.1c0.3-0.3 1-0.8 1.4-0.8 0 0.1 0 0.1 0 0.2q0.2 0 0.3 0.1l-0.1 0.1v0.1q0 0 0 0c0.2-0.3 0.3-0.6 0.5-0.8 0.4-0.6 1-1.1 1.7-1.2 0.8-0.1 1.7 0.2 2.4 0.7 1 0.7 2.1 2.5 2.5 3.7 0.3 0.9 0.5 1.9 1 2.7 0.1-0.2 0.1-0.5 0.1-0.7 0.3-0.4 0.6-0.7 0.9-1.2 0.2-0.3 0.4-0.8 0.5-1.3v0.3h0.1c0.4-0.7 0.4-1.3 0.3-2.1v0.4q0-0.2-0.1-0.4c0-0.3 0.1-0.7 0.1-1.1 0-0.6-0.2-1.4 0.1-2 0.1-0.3 0.5-0.6 0.7-0.9 0 0.1 0.1 0.1 0.1 0.1 0.2 0 0.3-0.1 0.4-0.2q0 0 0 0c-0.2-0.2-1.3-1-1.4-1.2 0.3-0.2 2.3 0.2 2.8 0.3l-0.1-0.1v-0.1c0.3-0.5 0.9-1.4 1.4-1.6 0.2-0.1 0.3-0.1 0.4-0.1 0.3-0.1 0.6-0.4 0.8-0.6h0.1q0.1 0 0.2 0.1c-0.3-0.4-1.1-1.1-1.1-1.6 0-0.1 0.1-0.1 0.1-0.1 0.5 0.2 1 0.3 1.5 0.6 0.2-0.6 0.5-1.2 0.7-1.8 0.2-0.6 0-1.9 0.4-2.4 0.2-0.4 1-0.3 1.5-1 0 0 0.1-0.1 0.1-0.1q-0.3-0.8-0.7-1.5c-0.1-0.2-0.4-0.7-0.5-0.9q0-0.1 0-0.1c0.2-0.1 0.4 0.1 0.6 0.2 0.6 0.4 1.1 0.8 1.7 1.3q1.1 0.8 2.2 1.6c0.2 0.2 0.5 0.5 0.8 0.7 0-0.3-0.4-0.4-0.4-0.6 0.3-0.2 2.6-1 2.9-0.9 0.1 0.1 0.1 0.3 0.1 0.5l0.1-0.1c-0.1-0.6-0.7-2.3-0.4-2.8 0.1-0.1 0.1-0.1 0.2-0.1 0.4 0.2 1.3 1.3 1.8 1.7 0.6 0.6 1.5 1.3 2.3 1.3 0.3 0.1 0.6 0 0.9-0.2q0.2-0.2 0.3-0.4c0.3-1 0.1-4.6 0.1-5.8q0-0.8 0-1.6l0.3-0.3zm62.1 47.9q-0.1 0-0.1 0c-0.2 0-0.5-0.1-0.7-0.2q0 0 0-0.1 0-0.1 0-0.1h-0.1-0.1-0.1q0 0.2 0 0.3-0.1 0.1-0.2 0.2c0.5 0.6 0.8 1 1.4 1.5q-0.4-0.1-0.8-0.1h-0.1-0.1c-0.8 0-1.9-0.4-2.7-0.1-0.2 0.3 0.1 1.3 0.2 1.7 0.3 2 1.6 3.8 2.4 5.7 0.1 0.3 0.3 0.7 0.4 1.1-0.3 0.9-1.8 3.3-2.5 4.2-0.3 0.5-0.7 1-1 1.5-0.2 0.4-0.3 1.6-0.6 1.8-0.2-0.1-0.4-1.5-0.6-1.8-0.1-0.3-0.2-0.5-0.4-0.8l-0.1 0.1c-0.1 0.1 0.2 0.6 0.3 0.7 0.1 0.2 0 0.3-0.1 0.5q0.1 0.2 0.1 0.3c-0.1 0.2-0.3 0-0.4 0.2-0.1 0.2 0 0.4-0.2 0.6-0.4 0.2-0.9 0.1-1.3-0.1-1.3-0.6-2.2-2.6-2.9-3.7-0.1-0.3-0.4-0.6-0.5-0.9-0.2-0.7-1-2.5-1.6-2.9-0.2-0.1-0.5 0-0.7-0.2-0.2-0.1-0.4-0.2-0.6-0.3h-0.1c0 0.1 0 0.2 0 0.3-0.1-0.1-0.1-0.3-0.1-0.4 0 1.5 0.1 3.1 0.2 4.6 0.1 1.1 0.1 2.2 0.2 3.2 0 0.5 0.1 1 0.2 1.5 0 0.5 0 1 0 1.4 0.1 0.6 0.2 1.1 0.2 1.7l-0.1 0.1q-0.1 0-0.1 0c-0.5-0.1-1.2 0.2-1.7 0.3q-2.7 0.4-5.4 0.8c-1.7 0.2-3.4 0.4-5.1 0.6q-5.4 0.5-10.7 1.1c-1.1 0.2-2.2 0.2-3.3 0.4-0.3 0.1-1.4 0.4-1.5 0.3q-0.1 0-0.1 0c-0.2-0.5-0.2-1-0.3-1.5l-0.3-2.6q-0.4-2.6-0.9-5.3c-0.1-0.8-0.3-1.7-0.4-2.5-0.1-0.6-0.1-1.2-0.1-1.8 0 0.2 0 0.4-0.1 0.6 0 0.3-0.1 0.5-0.1 0.8 0.1 0.7 0.3 1.5 0.4 2.2 0 0.2-0.1 0.4-0.1 0.6 0.1 0.6 0.2 1.1 0.3 1.6l0.6 4.4c0.1 0.5 0 1.4 0.2 1.8 0.1 0.3 0 0.8 0.1 1.1 0 0.2 0.1 0.3 0.1 0.4q0 0.1 0.1 0.2 0 0 0 0v0.1c0.5 0.1 2.2 0 2.8 0h5.9 27.6c1.2 0 12.8 0.1 13.1-0.1q0.1 0 0.1 0v-25.8c-0.5 0.2-1-0.3-1.5-0.5-0.5-0.1-2.7-0.7-3-0.3 0 0.4 0.3 0.7-0.1 1-0.6 0.5-1.8 0.5-2.5 0.7-0.3 0.1-0.5 0.3-0.8 0.3q0-0.2 0-0.4zm-28.9-47.9c1.3 2.4 2.5 5.7 4.7 7.3l0.5-0.3c0.3-0.5 0.5-1.1 0.7-1.7 0.3-0.8 0.7-1.5 0.9-2.3 0.9 0.9 1.2 3.6 2 4.2 0.3 0.3 0.8 0.3 1.1 0.5 1.5-1.4 2-3.2 2.8-5 0-0.3 0.1-0.6 0.3-0.9h0.1c0.2 0.1 0.2 0.3 0.2 0.4q0.1 0.4 0 0.8c0.2 1.7 0.2 4.2 1.4 5.5 0.6-0.4 1.3-0.8 1.8-1.3 0.6-0.5 1.1-1 1.7-1.4 0.2 0.8 0.1 2.1 0 2.9q0 0.6 0 1.2c0.3 0.2 0.6 0.3 0.9 0.5 1.4-1 2.7-2.1 4-3.2 0.6-0.5 1.1-1 1.6-1.4q-0.1 0.9-0.3 1.7c-0.1 0.5-0.1 0.9-0.2 1.4-0.2 1.6-0.7 3.3-0.4 5 0.6 0.4 1.3 0.4 2.1 0.3 0.5-0.1 0.9-0.3 1.4-0.4 0.4-0.1 0.7-0.1 1.1-0.1 0.2-0.1 0.5-0.2 0.8-0.1 0 0.2-0.1 0.3-0.2 0.4-0.6 0.8-1.9 1.6-1.9 2.6 0.1 0.2 0.9 0.5 1.2 0.9 0.1 0.3 0.2 0.6 0.1 1-0.3 0.2-0.6 0.5-0.9 0.7 0.6 0.2 0.9 0.4 1.2 1 0.8 0.1 1.8 0.1 2.5 0.2 1 0.2 1.7 0.9 2.6 1.2 0.4 0.2 1.1 0.1 1.4 0.5q0.1 0 0.1 0.1c0.3 0.3 0.3 1.1 0.3 1.5-0.1 0.2-0.1 0.3-0.3 0.5-0.3 0.2-0.7 0.3-0.9 0.6-0.5 0.4-1.1 2.3-1.7 3 0.7 0.3 1.3 0.6 1.8 1q-0.7 0.6-1.5 1.1c-0.1 0.1-0.4 0.2-0.5 0.4q-0.1 0-0.1 0.1c0 0.3 0 0.5 0.2 0.6 0.5 0.6 2 0.4 2.8 0.5q0.7 0 1.4 0.1v-31.6zm36.8 31.9c-0.9 0.5-4.5 1.6-4.8 2.5 0 0.2 0.1 0.2 0.2 0.3 0.5 0.3 2.8 1.2 3 1.6-0.2 0.2-1 0.3-1.3 0.4 0.4 0.8 0.6 1.7 0.3 2.6-0.2 0.4-0.5 0.9-0.9 1.1-0.4 0.1-0.8 0.2-1.1 0.4q0 0 0 0c0.3 0.1 0.6 0 0.8 0.1-0.1 0.3-0.5 0.4-0.6 0.8-0.1 0.4-0.2 0.9-0.3 1.2 1.1 1.2 2.4 2.1 3.7 3.1l0.1-0.1c0.3 0.2 0.6 0.6 0.9 0.7zm-21.8 24.6q0 0.2 0 0.4c0 0.1 0 0.2 0.1 0.3 0-0.1 0-0.1 0-0.2h0.1c0.2 0.1 0.4 0.2 0.6 0.3 0.2 0.1 0.5 0 0.8 0.2 0.6 0.4 1.3 2.2 1.5 2.9 0.1 0.3 0.4 0.6 0.5 0.8 0.7 1.2 1.6 3.2 2.9 3.7 0.4 0.2 0.9 0.3 1.3 0.2 0.2-0.2 0.1-0.5 0.2-0.6 0.2-0.2 0.3-0.1 0.5-0.2q-0.1-0.2-0.2-0.3c0.1-0.2 0.2-0.3 0.1-0.5-0.1-0.1-0.3-0.6-0.3-0.7l0.2-0.1q-0.3-0.5-0.6-1.1c-0.2-0.6-1.1-2-1.5-2.6-0.3-0.5-0.6-0.9-0.9-1.4-0.4-0.8-0.1-1.4 0.1-2.2l-0.4-0.4c-0.4-0.3-0.8-0.8-1.1-1.1-0.4-0.3-0.7-0.4-1.1-0.4-0.8 0.1-1.7 0.8-2.2 1.4-0.4 0.5-0.6 0.9-0.6 1.6zm-35-38.8q0 0 0 0c-0.1 0.1-0.2 0.2-0.4 0.1 0 0-0.1 0-0.1 0-0.2 0.2-0.6 0.5-0.7 0.8-0.3 0.6-0.1 1.4-0.1 2.1 0 0.3-0.1 0.7-0.1 1.1q0.1 0.2 0.1 0.4v-0.4c0.1 0.8 0.1 1.4-0.3 2.1h-0.1v-0.3c-0.1 0.4-0.3 0.9-0.5 1.3-0.3 0.4-0.6 0.8-0.9 1.2 0 0.2 0 0.5-0.1 0.7 0.2 0.6 0.5 1.2 1.2 1.5q0.4 0.2 0.8 0.1c0.7-0.2 1-0.7 1.5-1.3l-0.3-0.4q-0.3-0.4-0.5-0.7c0.5-1.1 0.9-2.3 1.7-3.2-0.1-0.6 0.4-2.9 0.6-3.5q-0.9-0.8-1.8-1.6zm47.4 27.1c-0.3 0.3-0.9 0.7-1 1.2 0 0.3 0.1 0.5 0.3 0.7q0.3 0.5 0.7 0.9l0.3 0.3q0.1 0 0.1-0.1 0.1-0.2 0.1-0.3l0.1-0.1h0.1q0 0.1 0 0.2 0 0 0 0.1c0.2 0.1 0.5 0.2 0.7 0.1q0 0 0.1 0 0 0.2 0 0.4l0.1 0.1c0.2-0.1 0.4-0.2 0.7-0.3 0.8-0.2 1.9-0.2 2.5-0.7 0.4-0.3 0.1-0.6 0.1-1 0.4-0.4 2.5 0.1 3 0.3 0.5 0.1 1 0.7 1.5 0.5v-0.6c-0.3 0-0.6-0.4-0.9-0.6l-0.1 0.1v0.1c-0.6-0.2-1.3-0.3-1.9-0.4-1.2-0.2-2.3-0.4-3.5-0.6-1-0.1-2-0.1-3-0.3zm-49.9-9.4c-0.3 0.2-0.6 0.9-0.6 1.3 0 0 0 0 0.1 0v-0.1c0.2-0.2 0.4-0.2 0.6-0.4-0.1 0.3-0.5 0.6-0.5 0.9 0.2 0.2 0.6 0.1 0.8 0.2 0.1 0 0.3 0.2 0.4 0.3 0.7 0.6 0.9 1.3 0.8 2.2 0 0.3-0.2 0.6-0.2 0.9 0.3-0.2 0.6-0.7 0.9-0.7 0.6-0.3 1.1-1 1.5-1.5-0.2-0.7-0.3-1.4-0.6-2q-0.2-0.5-0.5-1c-0.6-0.2-1.2-0.5-1.7-0.6-0.5 0-0.7 0.2-1 0.5zm9.9-27.4c0 0-0.1 0-0.2 0.1-0.4 0.6-1.2 0.6-1.4 1-0.4 0.5-0.2 1.8-0.4 2.4-0.2 0.6-0.5 1.2-0.7 1.7 0.5 0.3 1.2 0.6 1.7 0.8l0.1-0.1-0.2-0.1v-0.1c0-0.2 0.3-0.4 0.4-0.6 0.2-0.6 0.2-1.2 0.5-1.8 0.3-0.6 0.7-1.1 1-1.6-0.2-0.6-0.5-1.2-0.8-1.7zm-2.9 39c-0.8 0.2-1.6 0.4-2.4 0.6-0.1 0.3-0.2 0.3-0.5 0.4-0.1 0.1-0.2 0.1-0.3 0.1 0.1 0.3 0.7 0.2 0.9 0.5 0.3 0.3 0.7 1.9 0.7 2.3-0.1 0.1-0.1 0.2-0.1 0.4 0.2-0.1 0.1-0.2 0.3-0.2l0.1 0.1c0.4-0.6 0.9-1.2 1.2-1.8 0.2-0.4 1.1-2 1-2.4-0.3-0.1-0.6-0.1-0.9 0zm-3.1-30.2c0.8 0.3 2.7 0.4 3.6 0.2q0-0.4 0-0.8c0-0.8-0.3-1.4-0.8-1.9q-0.1 0-0.2 0h-0.1c-0.2 0.2-0.5 0.5-0.8 0.6-0.1 0-0.2 0-0.4 0-0.5 0.2-1.1 1.2-1.4 1.6v0.1l0.1 0.1zm6.8-7.1c-0.3 0.6-0.7 1-1 1.6-0.2 0.6-0.3 1.3-0.5 1.8-0.1 0.3-0.3 0.4-0.4 0.7l0.2 0.1v0.1c0.4 0.1 0.7 0.2 1.2 0.2 0.7-0.2 1.1-0.6 1.5-1.2-0.2-1.1-0.6-2.3-1-3.3zm3.3-0.4c0.6 0.6 1.3 0.9 2.1 1.1 0.3-0.1 0.6-0.4 0.9-0.6-0.1-0.5-0.1-1.1-0.3-1.6v0.1c-0.1-0.2-0.1-0.4-0.2-0.5-0.3-0.1-2.6 0.7-2.9 0.9 0 0.2 0.4 0.4 0.4 0.6zm-12.2 34.6c-0.1 0.1-0.2 0-0.2 0.2 0.5 0.6 1.1 1.2 1.4 1.9q0 0.2 0 0.4c0.4-0.1 0.8-1.2 1.2-1 0 0.1 0 0.2 0 0.3 0.3-0.3 0.6-0.7 0.9-1.1l-0.2-0.1c-0.1-0.3 0.2-0.4 0.3-0.7-0.1-0.1-0.1-0.1-0.2-0.1h0.1c-0.2-0.1-0.4-0.1-0.6-0.1-0.7 0-2.1 0.1-2.7 0.3zm2.5-24.6c-0.2 0.6-0.7 2.9-0.6 3.5 0.6-0.8 1.1-1.6 1.7-2.4-0.4-0.4-0.7-0.7-1.1-1.1zm2 33.8c0.1 0.1 0.1 0.1 0.2 0q0.1-0.1 0.2-0.1c0.3-0.5 3.7-2.2 4.2-2.3 0.5 0 1.2 0.2 1.6 0.6q0 0 0 0h0.1v-0.2l0.1-0.1c-0.4-0.4-0.9-0.6-1.5-0.7q-0.4 0-0.7 0.1c-0.6 0.2-2.4 1.2-2.9 1.5q-0.5 0.4-1 0.9-0.2 0.1-0.3 0.3zm47.6-12q-0.2 0.2-0.3 0.4c0.2 0.6 0.6 1 1 1.4 0.2-0.3 0.2-0.8 0.3-1.2 0.2-0.4 0.5-0.4 0.6-0.8-0.2-0.1-0.5 0-0.8-0.1q0 0 0 0c-0.3 0.1-0.5 0.2-0.8 0.3zm-18.1-37q0 0 0 0.1c0.1 0.2 0 0.6 0 0.9 0 0.4 0.1 1.2 0.2 1.6q0 0 0.1-0.1 0 0 0.1 0v-0.1q0 0.2 0 0.4c0.1 0.2 0.2 0.4 0.3 0.5 0.2 0.4 0.3 1 0.7 1.2q0.1 0 0.1 0c0.2 0 0.4-0.2 0.6-0.4q0.7-0.4 1.3-1c0.3-0.2 1.2-1.1 1.4-1.2q0.1 0 0.1 0v0.1l-0.1-0.1c0.4 0.5 0 2.1 0.1 2.7 0.1-0.8 0.3-2.1 0.1-2.9-0.6 0.4-1.2 1-1.7 1.4-0.6 0.5-1.3 0.9-1.9 1.3-1.2-1.3-1.2-3.8-1.3-5.4-0.2 0.2-0.1 0.7-0.1 1zm-0.6-1.4h0.1q0 0 0 0 0.1-0.1 0.1-0.2c0 0.1 0 0.1 0.1 0.1 0 0.2 0 0.3 0 0.5-0.1 0.2 0 0.6 0.1 0.8l0.1-0.3q0 0.3 0.1 0.5c0-0.3-0.1-0.8 0.1-1q0-0.4 0-0.8c-0.1-0.2-0.1-0.4-0.2-0.5h-0.1c-0.2 0.3-0.3 0.6-0.4 0.9zm-30.7 40.9c0.2 0 0.4 0 0.6 0.1h-0.1c0.1 0 0.1 0 0.2 0.1-0.1 0.3-0.4 0.4-0.3 0.7l0.2 0.1c0.3-0.3 0.5-0.8 0.8-1.1q-0.7 0-1.4 0.1zm-13.3-18.8c0.6-0.3 1.4-0.8 2-0.9-0.4-0.1-0.7 0-1.1 0v-0.1c-0.3 0.2-0.7 0.7-0.9 1zm-0.4-1.2c-0.2 0.3-0.7 1.9-0.6 2.2q0 0 0 0h0.1c0.3-0.5 0.8-1 0.9-1.5-0.2-0.1-0.4 0.9-0.8 1 0-0.6 0.4-1.1 0.4-1.7q0 0 0 0zm55.9 8.9q-0.1 0.3-0.3 0.5 0.3 0.3 0.5 0.6h0.1c0-0.2-0.1-0.9-0.2-1q0-0.1-0.1-0.1z"/><path class="f" d="m46.4 44.1l0.3 0.2q-0.2 0.3-0.5 0.5c0-0.1 0-0.2-0.1-0.3q0.2-0.2 0.3-0.4z"/><path class="g" d="m71.2 92.8c0.2-0.1 0.4-0.1 0.6 0 0.1 0.1 0.1 0.2 0.1 0.4q-0.1 0-0.1 0.1v-0.1c-0.3-0.1-0.4-0.3-0.6-0.4z"/><path class="h" d="m45.5 43.9c0.2 0.2 0.4 0.4 0.6 0.6 0.1 0.1 0.1 0.2 0.1 0.3h-0.2c-0.3-0.1-0.4-0.6-0.5-0.9z"/><path class="i" d="m46.8 43.7q0.2 0 0.4 0.1l-0.5 0.5-0.3-0.2c0.2-0.1 0.3-0.3 0.4-0.4z"/><path class="j" d="m52.2 77.9q0.1 0 0.3 0 0.1 0.1 0.3 0.2c-0.2 0.1-0.2 0.1-0.3 0.2 0.1 0.2 0.1 0.2 0.2 0.2q0 0 0 0c-0.1 0.1-0.3 0.2-0.4 0.3 0-0.3-0.1-0.6-0.1-0.9z"/><path class="k" d="m84.4 61.5q0 0 0.1 0c0.1 0.2 0.2 0.9 0.1 1.1q-0.2-0.4-0.5-0.6 0.2-0.3 0.3-0.5z"/><path class="l" d="m67.3 51.4q0.5-0.3 1.1-0.4-0.1 0.2-0.3 0.4c0.3 0.1 0.4 0.1 0.7 0.2q0 0 0.1 0c-0.4 0.1-1.2-0.2-1.6-0.2z"/><path class="l" d="m52.3 74c0.4 0.2 0.7 0.1 1.1 0.2-0.2 0.1-0.5 0.3-0.7 0.3q-0.1 0-0.2-0.1l-0.2-0.1c0-0.1 0-0.2 0-0.3z"/><path class="m" d="m53.5 72.7q0.2 0.1 0.3 0.3c-0.2 0-0.3 0-0.4 0.1-0.2 0.2-0.3 0.3-0.3 0.6q0-0.1 0-0.2c0-0.3-0.1-0.4-0.3-0.6 0.2 0 0.5-0.1 0.7-0.2z"/><path class="m" d="m45.5 75l0.3 0.1q0.2 0.2 0.3 0.5v0.1c0.1 0.3 0.2 0.8 0.2 1l-0.2 0.1v-0.1c0.1-0.7-0.2-0.7-0.4-1.3q0-0.1 0-0.1-0.1-0.1-0.2-0.3z"/><path class="n" d="m57.3 73.9c0.1 0.1 0.5 0.5 0.7 0.5q0.1 0 0.1 0c-0.3 0.1-0.4 0.4-0.5 0.7-0.3-0.3-0.3-0.9-0.3-1.2z"/><path class="o" d="m63.9 51.4c0.2 0 0.4 0.1 0.6 0.2q-0.2 0.3-0.3 0.6l-0.1 0.1-0.1-0.1q-0.1-0.2-0.2-0.4c0-0.2 0-0.2 0.1-0.4z"/><path class="j" d="m51.6 76.6h0.1q0.2 0.1 0.4 0.1c-0.4 0.3-0.1 0.8-0.6 1.1 0-0.1 0.1-0.1 0-0.2l-0.2-0.1q0.1 0 0.3-0.1c0-0.1 0-0.1-0.1-0.3q0-0.2-0.1-0.4z"/><path class="k" d="m28.5 52.5q0 0.1 0 0.1c0 0.6-0.4 1.1-0.4 1.7 0.4-0.1 0.6-1.1 0.8-1.1-0.2 0.6-0.6 1.1-0.9 1.6h-0.1q0 0 0 0c-0.1-0.3 0.4-1.9 0.6-2.3z"/><path class="p" d="m78 75.9c0.6 0.2 1.3 0.6 1.7 1.1-0.2-0.1-0.6-0.5-0.8-0.5-0.2 0-0.3 0.2-0.4 0.3-0.1-0.3-0.4-0.5-0.5-0.7z"/><path class="q" d="m28.9 53.8c0.2-0.3 0.5-0.8 0.8-1l0.1 0.1c0.4 0 0.7-0.1 1.1 0-0.7 0.1-1.4 0.6-2 0.9z"/><path class="j" d="m52.4 80c-0.1-0.1-0.3-0.2-0.4-0.3-0.2-0.2-0.3-0.5-0.3-0.7 0-0.2 0.1-0.3 0.2-0.4 0.2 0.1 0.3 0.5 0.5 0.6v0.1c-0.1 0.1-0.1 0.1-0.2 0.2 0 0.2 0.1 0.4 0.2 0.5z"/><path class="n" d="m47.4 35.5c0.5 0.3 1.1 0.8 1.6 1.3-0.3 0-0.4-0.3-0.7-0.5-0.1-0.1-0.2-0.1-0.3-0.2h-0.1c0 0.6 0.8 1.4 0.9 2.2-0.4-0.6-1.1-2.1-1.4-2.8z"/><path class="r" d="m51 76.7c0.2-0.1 0.1-0.1 0.3 0q0 0 0.1 0 0.1 0.2 0.1 0.4c0.1 0.2 0.1 0.2 0.1 0.3q-0.2 0.1-0.3 0.1l-0.3-0.1c-0.1 0-0.2 0-0.3-0.1 0-0.1 0.1-0.2 0.2-0.4 0.1 0 0.1-0.1 0.1-0.2z"/><path class="j" d="m50.9 76.9c0.1 0.1 0.2 0.1 0.3 0.3l-0.2 0.2c-0.1 0-0.2 0-0.3-0.1 0-0.1 0.1-0.2 0.2-0.4z"/><path class="s" d="m51.2 77.2c0.1 0 0.2 0 0.3-0.1 0.1 0.2 0.1 0.2 0.1 0.3q-0.2 0.1-0.3 0.1l-0.3-0.1z"/><path class="t" d="m90.2 52.6c0-0.2 0-0.3 0.2-0.4 0.1-0.1 0.2-0.1 0.3-0.1 0.1 0 0.2 0.1 0.3 0.2q0.1 0.2 0 0.4c-0.1 0.1-0.3 0.2-0.5 0.3q-0.2-0.1-0.4-0.2 0-0.1 0.1-0.2z"/><path class="u" d="m55.3 68.1c0.1-0.1 0.2-0.3 0.4-0.4 0.1 0 0.1 0 0.1 0.1 0.2 0.1 0.2 0.4 0.2 0.6v0.4q-0.1-0.2-0.1-0.3c-0.2-0.1-0.2-0.1-0.4 0-0.2 0.2 0 0.6-0.4 0.7 0-0.4 0.1-0.8 0.2-1.1z"/><path class="v" d="m58.1 74.4h0.2c0 0 0 0 0 0.1 0 0.5 0 1 0 1.4-0.1-0.4-0.4-0.6-0.7-0.8 0.1-0.3 0.2-0.6 0.5-0.7z"/><path class="s" d="m53.8 73c0.1 0 0.2 0 0.3 0 0.1 0.1 0.1 0.4 0.1 0.5q-0.1 0.2-0.2 0.3c-0.1 0-0.2 0-0.3 0q-0.1 0-0.2-0.1h-0.4c0-0.3 0.1-0.4 0.3-0.6 0.1-0.1 0.2-0.1 0.4-0.1z"/><path class="j" d="m50.3 78.5q0.1 0.1 0.3 0.2 0 0 0 0c0.2 0.1 0.3 0.1 0.5 0.2 0.1 0 0.1 0.1 0.1 0.2q0 0.2 0 0.3c-0.4 0-0.8-0.1-1.2-0.3-0.1 0-0.3-0.1-0.5-0.2l0.1-0.1c0.2 0.1 0.5 0.2 0.7 0.1 0.1-0.1 0-0.2 0-0.4z"/><path class="v" d="m44.6 72.9c0.1 0.1 0.7 1.2 0.8 1.3 0.2 0.3 0.3 0.6 0.4 0.9l-0.3-0.1c-0.3-0.4-0.8-1.2-0.9-1.7 0-0.1 0-0.3 0-0.4z"/><path class="w" d="m67.7 52.3c0.2 0 0.4 0 0.5 0 0.1 0.1 0.1 0.2 0.2 0.3q-0.1 0.2-0.3 0.3c-0.1 0.1-0.2 0.1-0.3 0.1-0.3-0.1-0.3 0.1-0.5 0.1 0-0.2 0-0.4 0.1-0.6 0.1-0.1 0.2-0.2 0.3-0.2z"/><path class="p" d="m33.1 70.4q0 0 0.1 0c0.3 0 0.5-0.2 0.6-0.3-0.1 0.3-0.4 0.5-0.6 0.7-0.7 0.3-1.8 0.4-2.5 0.2 0.8 0 1.5-0.1 2.1-0.5 0.1 0 0.2 0 0.3-0.1z"/><path class="r" d="m50.7 77.3c0.1 0.1 0.2 0.1 0.3 0.1l0.3 0.1 0.2 0.1c0.1 0.1 0 0.1 0 0.2-0.4 0.1-0.7 0.2-1 0.5l-0.2-0.2c-0.1-0.2-0.1-0.3-0.1-0.5 0.2-0.1 0.3-0.1 0.5-0.2z"/><path class="t" d="m75.5 52.3c0.1 0 0.3 0 0.4 0.1 0.1 0 0.3 0.1 0.3 0.3q0.1 0.1 0 0.3 0 0 0 0c-0.1 0.1-0.1 0.1-0.2 0.2q-0.2 0-0.3 0c-0.2 0-0.4-0.2-0.5-0.3q-0.1-0.1 0-0.3c0-0.1 0.1-0.2 0.3-0.3z"/><path class="x" d="m72.9 31.7c0.1-0.3 0.1-0.7 0.3-0.9h0.1c0.2 0.1 0.2 0.3 0.2 0.4q0.1 0.4 0.1 0.8c-0.3 0.3-0.1 0.8-0.2 1.1q0-0.2 0-0.5h-0.1v0.3c-0.1-0.3-0.2-0.6-0.1-0.8 0-0.2 0-0.3-0.1-0.5 0 0 0 0 0-0.1q-0.1 0.1-0.1 0.2 0 0 0 0z"/><path class="l" d="m88.8 52.8c0.2 0 0.3 0 0.4 0 0.2-0.1 0.3-0.2 0.5-0.1q0.2 0 0.4 0.1 0.2 0.1 0.4 0.2c-0.1 0-0.1 0-0.2 0.1q0 0 0 0v0.1l-0.1-0.1c0 0.1 0 0.2 0 0.3 0.1 0.2 0.4 0.2 0.6 0.3q0.2 0.3 0.4 0.7h-0.1c-0.4-0.4-0.2-0.7-0.9-0.7-0.1-0.1-0.1-0.3-0.1-0.4-0.2-0.3-1.1 0-1.4-0.3v-0.1z"/><path class="h" d="m34.6 69.2c0.3-0.4 0.5-0.8 0.8-1.1-0.1 0.9-0.7 1.6-1.4 2.3-0.2 0.1-0.4 0.2-0.6 0.3q-0.1 0.1-0.2 0.1c0.2-0.2 0.5-0.4 0.6-0.7 0.2-0.1 0.2-0.2 0.3-0.3 0.2-0.1 0.5-0.4 0.5-0.6z"/><path class="y" d="m44 74.6c0.2 0.1 0.4 0.3 0.5 0.5q0 0.1-0.1 0.3c-0.3 0.4-1.3 0.5-1.8 0.7l-0.7 0.1q0.1 0 0.2-0.1c0.5-0.4 1-0.5 1.5-1l0.1 0.2q0.1 0 0.1 0.1c0.1 0 0.2 0.1 0.3 0q0 0 0-0.1c0.1-0.3 0-0.5-0.1-0.7z"/><path class="g" d="m52.6 77q0.1-0.1 0.2-0.2c0.4-0.3 2.1-0.2 2.5-0.1q-0.4 0-0.9 0c-0.1 0.1-0.2 0.2-0.2 0.3 0.1 0.1 0.2 0.2 0.3 0.2-0.6 0-1.2 0.1-1.8 0.1-0.1-0.1-0.1-0.2-0.1-0.3z"/><path class="h" d="m31.7 53c0.1 0.2 0.3 0.5 0.6 0.5q0 0 0.1 0c0.4 0.1 0.6 0.2 0.9 0.4-0.2 0.1-0.6 0.2-0.7 0.4-0.2 0.2-0.1 0.5-0.1 0.7l-0.1-0.4c-0.2-0.5-0.7-1.2-1.2-1.4 0.2 0 0.3-0.1 0.5-0.2z"/><path class="z" d="m80.1 49.2q0 0 0 0c0.3 0.5 0.3 1.7 0.4 1.7 0.4-0.1 0.8-0.1 1.2 0l0.1 0.1c0.2-0.6 0.3-1.1 0.5-1.6 0 0.5-0.1 1.3-0.5 1.7-0.3 0.3-0.9 0.2-1.3 0.2-0.3-0.6-0.3-1.4-0.4-2.1z"/><path class="f" d="m82 74c0.1 0 0.1 0 0.2 0.1 0.1 0.2 0.1 0.5 0.1 0.7 0 0.2 0 1.2-0.1 1.3l-0.2-0.1q0-0.1 0-0.1c-0.2-0.4-0.6-1.3-0.4-1.7 0.2-0.1 0.3-0.1 0.4-0.2z"/><path class="A" d="m92.1 57.6c0.5 0 1.3 0.2 1.8 0.3v0.1q-0.2 0.1-0.4 0.3-0.3 0.2-0.7 0.4c-0.3-0.3-0.6-0.6-0.7-1.1z"/><path class="n" d="m55.1 40.5c-0.1-0.1-0.3-0.2-0.4-0.3-0.1-0.1-0.2-0.3-0.2-0.4 0.2-0.3 0.7-0.4 0.9-0.6q0.2 0.2 0.3 0.3 0 0.5-0.1 1c-0.2 0-0.3 0-0.5 0z"/><path class="t" d="m53 78.8q0.1 0 0.2 0 0.1 0 0.2 0c0.5 0.2 1.3 0.7 1.5 1.2 0.1 0.1 0.1 0.3 0.1 0.4-0.5-0.2-1.8-1-2-1.4 0-0.1 0-0.1 0-0.2z"/><path class="B" d="m44.9 43c0.6 0.1 1.2 0.5 1.9 0.7-0.1 0.2-0.2 0.3-0.4 0.4q-0.1 0.2-0.3 0.4c-0.2-0.2-0.4-0.4-0.6-0.6-0.2-0.2-0.4-0.6-0.6-0.9z"/><path class="i" d="m47.3 44.6c0.1 0.2 0.2 0.2 0.3 0.3 0 0.1 0 0.3 0 0.4q-0.1 0.3-0.2 0.6-0.4 0.1-0.8 0.1-0.3 0-0.4 0l-0.1-0.1c0.3-0.5 0.9-0.9 1.2-1.3z"/><path class="m" d="m47.4 45.9q0.1-0.3 0.2-0.6c0-0.1 0-0.3 0-0.4 0.5 0.1 0.8 0.2 1.3 0.5l0.3 0.1c-0.3 0-0.9-0.2-1.1 0-0.1 0.1-0.3 0.3-0.2 0.5 0 0.3 0.4 0.5 0.4 0.7-0.4-0.1-0.7-0.1-1.1 0 0-0.2 0.1-0.4 0.2-0.6 0 0.2 0.1 0.2 0.1 0.3 0.2 0.1 0.2 0.1 0.3 0.1l0.1-0.1q0-0.1 0-0.2c-0.1-0.1-0.1-0.2-0.2-0.3-0.2 0.1-0.2 0.1-0.3 0.1-0.1 0.1-0.2 0-0.4 0.1v0.1l0.2 0.2v0.1h-0.1-0.1q-0.2-0.2-0.3-0.4c0 0-0.1 0-0.1-0.1q0.4 0 0.8-0.1z"/><path class="A" d="m87.4 48.4c0.4 0.1 0.9 0.7 1.1 0.9-0.4 0.1-0.8 0.2-1.2 0.3q-0.6 0.1-1.1 0.2c0.4-0.4 0.8-0.9 1.2-1.4z"/><path class="s" d="m52.4 79.3c0.4 0.2 0.7 0.5 1 0.8 0.6 0.4 1.3 0.7 1.7 1.3-0.9-0.3-2-0.7-2.7-1.4-0.1-0.1-0.2-0.3-0.2-0.5 0.1-0.1 0.1-0.1 0.2-0.2z"/><path class="o" d="m49.1 77.8c0-0.2 0-0.2 0.2-0.3v0.1c0.2 0.1 0.4 0 0.5 0.1 0.2 0.1 0.3 0.3 0.5 0.4l0.2 0.2-0.1 0.1c0 0.1 0.1 0.2 0.2 0.3q-0.2-0.1-0.3-0.2c0 0.2 0.1 0.3 0 0.4-0.2 0.1-0.5 0-0.7-0.1l-0.1 0.1c-0.3-0.2-0.5-0.2-0.8-0.1v-0.3c0-0.2 0-0.4 0.2-0.6h0.1c0-0.1 0-0.1 0.1-0.1z"/><path class="C" d="m48.7 78.5c0-0.2 0-0.4 0.2-0.6h0.1c0.1 0.4 0.3 0.7 0.6 0.9l-0.1 0.1c-0.3-0.2-0.5-0.2-0.8-0.1z"/><path class="l" d="m49.1 77.8c0-0.2 0-0.2 0.2-0.3v0.1c0.2 0.1 0.4 0 0.5 0.1 0.2 0.1 0.3 0.3 0.5 0.4l0.2 0.2-0.1 0.1c0 0.1 0.1 0.2 0.2 0.3q-0.2-0.1-0.3-0.2c-0.2-0.2-0.5-0.5-0.9-0.6q-0.1-0.1-0.3-0.1z"/><path class="D" d="m40.4 60.2c0.1 0.2 0.2 0.3 0.5 0.4q0.1 0 0.2 0c0 0 0 0 0.1 0 0.1 0.4-0.2 1.2 0.1 1.5 0.1 0.2 0 0.6 0 0.9 0 0.4 0 0.9 0.1 1.4h-0.1c-0.1-0.4 0-1.9-0.2-2.2-0.2 0-0.3 0-0.4-0.1q0 0-0.1 0c-0.2 0.2-0.1 0.5-0.2 0.7 0-0.2-0.2-0.6-0.1-0.8h0.1c0.1-0.2 0-0.7 0-0.9 0-0.3-0.2-0.7 0-0.9z"/><path class="p" d="m40.4 60.2c0.1 0.2 0.2 0.3 0.5 0.4q0.1 0 0.2 0c0 0 0 0 0.1 0-0.2 0-0.7 0.1-0.8 0.2q0 0.2 0 0.3c0-0.3-0.2-0.7 0-0.9z"/><path class="E" d="m73.4 33.1c0.1-0.3-0.1-0.8 0.2-1.1 0.1 1.7 0.1 4.2 1.3 5.5 0.6-0.4 1.3-0.8 1.9-1.3 0.5-0.5 1-1 1.6-1.4 0.3 0.8 0.1 2.1 0 2.9-0.2-0.6 0.3-2.3-0.1-2.7l0.1 0.1v-0.1q-0.1 0-0.1 0c-0.2 0.1-1.1 1-1.4 1.2q-0.6 0.5-1.3 1c-0.2 0.1-0.4 0.3-0.6 0.4q-0.1 0-0.1 0c-0.4-0.3-0.5-0.8-0.7-1.2-0.1-0.1-0.3-0.3-0.3-0.5q0-0.2 0-0.4-0.1 0.1-0.2 0.1 0 0 0 0c-0.1-0.3-0.2-1.1-0.2-1.5 0-0.3 0.1-0.7 0-1q0 0-0.1 0z"/><path class="A" d="m77.8 36.2c0.1 0.1-0.2 1.5-0.2 1.6-0.1 0.2-0.2 0.3-0.3 0.4-0.3 0-0.5-0.1-0.7-0.3q-0.3-0.2-0.5-0.4c0.6-0.4 1.1-1 1.7-1.3z"/><path class="z" d="m88.3 78.3c-0.3 0-2.5-0.5-2.6-0.6v-0.1c0.1-0.2 0.4-0.3 0.6-0.4 0.4-0.1 0.8-0.2 1.1 0 0.3 0.2 0.9 0.8 1 1.2z"/><path class="w" d="m56.4 78c0.8 0.3 2 0.7 2.4 1.5 0.1 0.1 0.1 0.2 0.1 0.3-0.1 0.1-0.2 0.2-0.3 0.3-0.4-0.1-1-0.9-1.3-1.1-0.3-0.3-0.8-0.5-1.2-0.6l-0.1-0.1v-0.1c0.1-0.1 0.2-0.1 0.4-0.2z"/><path class="l" d="m54.5 87.3c0-0.2-0.1-0.3 0-0.5 0.5-0.1 2.9-0.3 3.4-0.2 0.1 0.2 0 0.6 0.3 0.7 0.7 0 0.9-1.3 2.3-1.1q0.5 0.1 0.9 0.4c0.5 0.4 0.7 0.9 0.8 1.4 0 0.5-0.2 0.9-0.5 1.3-0.3 0.3-0.8 0.6-1.3 0.7-0.5 0-1.1-0.3-1.5-0.6-0.1-0.1-0.3-0.3-0.3-0.5q0 0 0 0c0.2 0.1 0.5 0.5 0.8 0.7 0.4 0.2 0.9 0.3 1.2 0.2 0.5-0.1 1-0.5 1.3-0.9 0.2-0.4 0.2-0.8 0.1-1.3-0.2-0.5-0.6-1-1.1-1.2-0.3-0.2-0.7-0.2-1.1-0.1-0.5 0.2-1 0.6-1.3 1.2-0.2 0.4-0.1 0.8 0 1.3-0.1-0.2-0.3-0.5-0.4-0.7 0-0.1 0.1-0.1 0.1-0.2h-0.1q0 0.1 0 0.2h-0.1v-0.1h-0.1c0.1-0.5 0-0.9 0-1.4-0.9 0-2.5 0.1-3.3 0.3-0.1 0.1-0.1 0.2-0.1 0.4z"/><path class="F" d="m54.9 36c0.6 0.1 1.5 1.2 2.1 1.6q-0.3 0.2-0.5 0.4c-0.2 0.1-0.8 0.5-1 0.5-0.2-0.5-0.6-2.1-0.6-2.5z"/><path class="l" d="m57.6 91.8q0-0.1 0.1-0.2c0.2-0.3 0.6-0.4 0.9-0.5 0.3-0.1 0.8-0.1 1.1-0.1l3.4-0.3c0.2 0 0.3 0.1 0.4 0.2-0.9-0.1-1.9 0.1-2.8 0.1 0.3 0.3 0.6 0.7 0.9 1q0 0.4 0 0.9 0 0.4 0 0.8-0.3 0.3-0.5 0.7c0.5 0 1.5 0 1.9-0.2 0-0.1 0-0.1 0-0.2-0.2-0.3-0.6-0.4-0.6-0.8 0.1-0.1 0.1-0.2 0.2-0.2 0.6 0.1 1 0.9 1.4 1.1q0.1 0.1 0.1 0.1c0.3-0.1 0.6-0.1 0.8-0.2l0.1-0.1-0.1-0.2h0.2c0.1 0 0.1-0.1 0.1-0.3q0.1 0.3 0.1 0.6h1q0 0-0.1 0c-0.3 0.1-0.8 0.1-1.1 0.1-0.3 0-0.7 0.2-0.9 0.2-0.6-0.1-1-1.1-1.6-1.2q0 0.1 0 0.2 0 0 0.1 0c0 0.4 0.4 0.5 0.4 0.9q0 0.1-0.1 0.1c-0.3 0.2-1.5 0.2-1.8 0.1-0.1 0-0.1 0-0.1-0.1 0-0.3 0.2-0.6 0.5-0.8v-0.6c-0.2-0.3 0-0.6-0.1-0.9-0.2-0.2-0.5-0.4-0.7-0.7h-0.1c0 0 0 0 0 0.1 0 0.1 0 0.2 0 0.3 0.1 0.2 0 0.8-0.1 1l-0.1-0.1q0 0 0 0c0.2-0.5 0-1.1-0.2-1.5-1.1 0-1.9 0-2.7 0.7z"/><path class="z" d="m42.3 52.3c0.2-0.4 0.4-1 0.7-1.4q0.2-0.3 0.5-0.3c0.5 0 1 0.4 1.4 0.7q0.3 0.1 0.7 0.1-0.1 0-0.2 0.1-0.1 0-0.2 0c-0.7 0-1.5-1.4-2.1-0.6-0.2 0.2-0.3 0.6-0.3 0.9q0 0.1 0.1 0.2c0.1 0.1 0.1 0.1 0.3 0.1 0.1-0.1 0.2-0.3 0.4-0.3 0.5 0 1.1 0.2 1.6 0.3 0.5 0.1 1.1 0 1.6 0q0.2 0 0.5 0l-0.8 0.2q-0.3 0-0.6 0c-0.7-0.1-1.8-0.5-2.4-0.3-0.2 0-0.2 0-0.3 0.2 0.1 0.5 0.9 0.7 1 1.3 0 0.1 0 0.2-0.1 0.3h-0.1c-0.5-0.2-1.2-1.1-1.7-1.5z"/><path class="A" d="m67 33.1c0.2 0.1 0.6 2.4 0.7 2.8h-0.7l-0.9-0.1c0.2-0.9 0.4-2 0.9-2.7z"/><path class="z" d="m43.3 74.2c0.2 0.1 0.5 0.3 0.7 0.4 0.1 0.2 0.2 0.4 0.1 0.7q0 0.1 0 0.1c-0.1 0.1-0.2 0-0.3 0q0-0.1-0.1-0.1l-0.1-0.2c-0.5 0.5-1 0.6-1.5 1q-0.1 0.1-0.2 0.1-0.5 0.2-1.1 0.3c0.6-0.7 1.3-1.2 2-1.8 0.1-0.2 0.3-0.3 0.5-0.5z"/><path class="i" d="m43.3 74.2c0.2 0.1 0.5 0.3 0.7 0.4 0.1 0.2 0.2 0.4 0.1 0.7q0 0.1 0 0.1c-0.1 0.1-0.2 0-0.3 0q0-0.1-0.1-0.1l-0.1-0.2c0.1 0 0.1 0.2 0.3 0.2 0.1-0.1 0.1-0.1 0.1-0.2-0.1-0.2-0.2-0.2-0.4-0.3-0.1-0.1-0.1-0.1-0.1-0.2v-0.1c-0.2 0-0.3 0-0.4 0.1q-0.2 0-0.3 0.1c0.1-0.2 0.3-0.3 0.5-0.5z"/><path class="G" d="m55.3 76.7c1.3 0 2.5 0.3 3.4 1.3 0.1 0.1 0.2 0.2 0.2 0.3l0.2 0.1c-0.1 0.2 0 0.1-0.1 0.2-0.6 0-1.2-0.7-1.8-0.9-0.3-0.2-0.8-0.2-1.1-0.2-0.5-0.1-1.1-0.1-1.6-0.3-0.1 0-0.2-0.1-0.3-0.2 0-0.1 0.1-0.2 0.2-0.3q0.5 0 0.9 0z"/><path class="A" d="m76.1 41.8c0-0.4 0-2.3-0.1-2.6-0.2-0.3-0.8-0.4-0.8-0.8 0-0.1 0-0.1 0-0.2 0.6 0.1 1.4 0.6 1.9 0.8q0.6 0.3 1.3 0.5c-0.4 0.4-0.9 0.6-1.4 0.9-0.1 0.1-0.1 0.1-0.2 0.3v0.1q0-0.1 0-0.1c-0.1-0.2-0.1-0.4-0.1-0.5q-0.2 0-0.3 0c-0.1 0-0.1-0.1-0.2-0.1 0 0.5-0.1 0.9 0 1.4 0 0.1 0.1 0.2 0 0.3z"/><path class="C" d="m52.1 73.8c0.1 0.1 0.1 0.1 0.2 0.2 0 0.1 0 0.2 0 0.3l0.2 0.1q0.1 0.1 0.2 0.1c0.2 0 0.5-0.2 0.7-0.3 0.2-0.1 0.4-0.2 0.6-0.1 0.1 0.1 0.2 0.2 0.2 0.2 0.1 0 0.1 0 0.1-0.1q0 0 0 0c0-0.1-0.1-0.2-0.1-0.3 0.3 0.1 0.3 0.5 0.6 0.5-0.5 0.4-1 0.8-1.6 0.9-0.3 0.1-0.5 0.1-0.7 0.2h-0.4c-0.3 0-0.4-0.3-0.8-0.4h-0.1q0-0.1-0.1-0.1c-0.1 0-0.1-0.1-0.1-0.2l0.3-0.2c0.2-0.2 0.4-0.3 0.6-0.4 0.1-0.1 0.2-0.2 0.2-0.4z"/><path class="j" d="m52.1 73.8c0.1 0.1 0.1 0.1 0.2 0.2 0 0.1 0 0.2 0 0.3l0.2 0.1c-0.2 0.1-0.2 0.1-0.3 0.2 0.1 0.2 0.1 0.3 0.2 0.5-0.5-0.1-0.6-0.4-1.1-0.5 0.2-0.2 0.4-0.3 0.6-0.4 0.1-0.1 0.2-0.2 0.2-0.4z"/><path class="t" d="m53.4 74.2c0.2-0.1 0.4-0.2 0.6-0.1 0.1 0.1 0.2 0.2 0.2 0.2-0.4 0.5-1 0.7-1.7 0.8q0 0-0.1 0c-0.1-0.2-0.1-0.3-0.2-0.5 0.1-0.1 0.1-0.1 0.3-0.2q0.1 0.1 0.2 0.1c0.2 0 0.5-0.2 0.7-0.3z"/><path class="A" d="m88.3 43.1q0.1 0 0.2 0c-0.1 0.2-1 1-1.2 1.3q-0.5 0.5-1 1.1-0.2-0.4-0.5-0.7c-0.3-0.4-0.7-0.7-1.1-1 0.5-0.1 1-0.1 1.5-0.2 0.7-0.1 1.4-0.3 2.1-0.5z"/><path class="j" d="m52.4 77.4c0.1-0.1 0.2-0.3 0.2-0.4 0 0.1 0 0.2 0.1 0.3 0.6 0 1.2-0.1 1.8-0.1 0.5 0.2 1.1 0.2 1.6 0.3-0.1 0-0.3 0-0.4 0.1q0 0.2 0 0.4 0.3 0 0.7 0c-0.2 0.1-0.3 0.1-0.4 0.2v0.1l0.1 0.1-0.5-0.1c-0.6 0-1.3 0-1.9 0-0.2 0-0.4 0.1-0.6 0.1l-0.4 0.1q0 0 0 0c-0.1 0-0.1 0-0.2-0.2 0.1-0.1 0.1-0.1 0.3-0.2q-0.2-0.1-0.3-0.2-0.2 0-0.3 0c0-0.1 0-0.4 0.2-0.5z"/><path class="s" d="m52.8 78.1c0.1-0.1 0.1-0.1 0.3-0.1 0 0.1 0 0.1 0 0.2v0.2l-0.4 0.1q0 0 0 0c-0.1 0-0.1 0-0.2-0.2 0.1-0.1 0.1-0.1 0.3-0.2z"/><path class="m" d="m52.2 77.9c0-0.1 0-0.4 0.2-0.5 0.1 0 0.2 0 0.3 0.2 0.1 0.1 0.1 0.1 0.1 0.3-0.1 0-0.2 0-0.3 0q-0.2 0-0.3 0z"/><path class="t" d="m55.7 78q0.3 0 0.7 0c-0.2 0.1-0.3 0.1-0.4 0.2v0.1l0.1 0.1-0.5-0.1q-0.2 0-0.3 0c-0.1 0-0.2-0.1-0.3-0.2h0.1c0.2-0.1 0.4-0.1 0.6-0.1z"/><path class="H" d="m79.5 55.7c0.7-0.6 1.3-1.4 2.2-1.7 0.7 0.4 0.9 1.2 1.4 1.9q0.6 0.9 1.6 1.5-0.1 0-0.1 0c-0.7-0.1-1.7-1.7-2.1-2.3-0.3 0-0.6 0.4-0.8 0.6-0.1 0.1-0.3 0.1-0.5 0.1q0 0 0 0c-0.3 0-0.6 0.1-0.9 0.2-0.4 0-0.5-0.1-0.8-0.3z"/><path class="v" d="m48.3 75.2h0.1c0.1 0.3 0.1 0.5 0.2 0.8 0.3 0 0.6-0.2 0.9 0h0.3q0.2 0 0.5 0.1 0.2 0.1 0.3 0.1c0.1 0.1 0.2 0.1 0.3 0.2 0.1 0.1 0.1 0.2 0.1 0.3 0 0.1 0 0.2-0.1 0.2-0.1 0.2-0.2 0.3-0.2 0.4v0.1c-0.2 0.1-0.3 0.1-0.5 0.2 0 0.2 0 0.3 0.1 0.5-0.2-0.1-0.3-0.3-0.5-0.4-0.1-0.1-0.3 0-0.5-0.1v-0.1c-0.2 0.1-0.2 0.1-0.2 0.3-0.1 0-0.1 0-0.1 0.1h-0.1c-0.2 0.2-0.2 0.4-0.2 0.6l-0.1-0.1c0.1-0.2 0.1-0.4 0.1-0.7 0-0.1 0-0.2 0.1-0.3q0 0-0.1 0c-0.2 0-0.4-0.2-0.5-0.3q0.1-0.1 0.2-0.2c0.1-0.1 0.1-0.3 0.1-0.5v-0.1q0 0-0.1-0.1c-0.1-0.3 0-0.7-0.1-1z"/><path class="p" d="m48.5 76.4c0.3 0.2 0.3 0.6 0.4 0.9 0 0.1 0 0.1-0.1 0.1q0 0-0.1 0c-0.2 0-0.4-0.2-0.5-0.3q0.1-0.1 0.2-0.2c0.1-0.1 0.1-0.3 0.1-0.5z"/><path class="t" d="m49.5 76h0.3q0.2 0 0.5 0.1 0.2 0.1 0.3 0.1c-0.2 0.1-0.3 0.1-0.4 0.3q0 0 0 0c-0.1 0.1-0.1 0.2-0.2 0.2-0.2 0.1-0.3 0.2-0.4 0.3-0.2-0.1-0.4-0.4-0.4-0.6q0.2-0.2 0.3-0.4z"/><path class="s" d="m49.5 76h0.3q0.2 0 0.5 0.1 0.2 0.1 0.3 0.1c-0.2 0.1-0.3 0.1-0.4 0.3q0 0 0 0c-0.1 0.1-0.1 0.2-0.2 0.2v-0.1c-0.1-0.2-0.2-0.5-0.5-0.6z"/><path class="m" d="m50.2 76.5q0 0 0 0c0.1-0.2 0.2-0.2 0.4-0.3 0.1 0.1 0.2 0.1 0.3 0.2 0.1 0.1 0.1 0.2 0.1 0.3 0 0.1 0 0.2-0.1 0.2-0.1 0.2-0.2 0.3-0.2 0.4v0.1c-0.2 0.1-0.3 0.1-0.5 0.2 0 0.2 0 0.3 0.1 0.5-0.2-0.1-0.3-0.3-0.5-0.4-0.1-0.1-0.3 0-0.5-0.1v-0.1q0.1-0.1 0.1-0.2c0.2-0.3 0.5-0.2 0.8-0.5 0-0.1 0-0.2 0-0.3z"/><path class="n" d="m45.2 78.4c0 0 0.1 0 0.1 0 0.2 0.1 0.7 0.6 0.9 0.7 0.2 0.1 0.3 0.1 0.3 0.2 0.1 0.1 0.1 0.2 0.2 0.3l-0.8 0.4c-0.6 0.3-1.2 0.8-1.7 1.2q-0.6 0.5-1.3 0.9 0.4-0.9 1-1.8c0.4-0.6 0.9-1.2 1.3-1.9z"/><path class="z" d="m46.2 79.1c0.2 0.1 0.3 0.1 0.3 0.2 0.1 0.1 0.1 0.2 0.2 0.3l-0.8 0.4q0-0.1 0-0.1c0-0.3 0.2-0.5 0.3-0.8z"/><path class="I" d="m60 69.6q0.2 0 0.4 0c0.8 0 1.4 0.3 2 0.9-0.6-0.1-1.1-0.2-1.7-0.2-1.3-0.1-3 0.1-4.2 0.6-0.4 0.2-1.3 0.9-1.6 0.9v-0.1q0.1-0.3 0.2-0.5c1-1.3 3.4-1.4 4.9-1.6z"/><path class="r" d="m49 73.8c0.1 0 0.3-0.1 0.4 0l0.1 0.2 0.3 0.1q0.1 0.2 0.1 0.4c0.2-0.1 0.4-0.2 0.6-0.2 0 0.1 0 0.2 0.1 0.2q0.1 0.1 0.3 0.1c0 0.1 0 0.1 0.1 0.2 0 0.1 0 0.2 0.1 0.2q0.1 0 0.1 0.1h0.1c0 0.4-0.1 0.6-0.4 0.9q0 0 0 0-0.1 0.1-0.3 0.2-0.1 0-0.3-0.1-0.3-0.1-0.5-0.1h-0.3c-0.3-0.2-0.6 0-0.9 0-0.1-0.3-0.1-0.5-0.2-0.8h-0.1c0-0.2 0-0.3 0-0.4l0.1-0.2 0.1-0.5q0.3-0.2 0.5-0.3z"/><path class="v" d="m49 73.8c0.1 0 0.3-0.1 0.4 0l0.1 0.2c-0.3 0.1-0.5 0.2-0.7 0.4-0.2 0-0.2 0-0.4 0.2l0.1-0.5q0.3-0.2 0.5-0.3z"/><path class="j" d="m49.6 74.9q0.2-0.1 0.4-0.2l0.1 0.1v0.1c0 0.1 0.2 0.3 0.1 0.4-0.1 0.1-0.1 0.1-0.2 0.1-0.2-0.1-0.3 0-0.5 0l-0.1-0.2c0-0.2 0.1-0.2 0.2-0.3z"/><path class="v" d="m49.9 74.5c0.2-0.1 0.4-0.2 0.6-0.2 0 0.1 0 0.2 0.1 0.2q0.1 0.1 0.3 0.1c0 0.2 0 0.3-0.1 0.4-0.1 0-0.2 0.1-0.3 0-0.1-0.1-0.3-0.2-0.4-0.3-0.1-0.1-0.2-0.1-0.2-0.2z"/><path class="t" d="m50.3 76.1q0-0.2-0.1-0.3c0-0.2 0.1-0.3 0.2-0.4 0.2-0.2 0.5-0.3 0.8-0.3h0.1c0 0.4-0.1 0.6-0.4 0.9q0 0 0 0-0.1 0.1-0.3 0.2-0.1 0-0.3-0.1z"/><path class="m" d="m48.4 74.6c0.2-0.2 0.2-0.2 0.4-0.2 0.1 0.1 0.1 0.2 0.3 0.3 0.1 0 0.3 0 0.4 0l0.1 0.2c-0.1 0.1-0.2 0.1-0.2 0.3l0.1 0.2c0.2 0 0.3-0.1 0.5 0 0.1 0.1 0.2 0.1 0.1 0.2 0 0.2-0.1 0.3-0.3 0.4q0 0 0 0h-0.3c-0.3-0.2-0.6 0-0.9 0-0.1-0.3-0.1-0.5-0.2-0.8h-0.1c0-0.2 0-0.3 0-0.4z"/><path class="v" d="m49.1 74.7c0.1 0 0.3 0 0.4 0l0.1 0.2c-0.1 0.1-0.2 0.1-0.2 0.3l0.1 0.2c-0.2 0-0.2-0.5-0.4-0.7z"/><path class="y" d="m28.6 68.6c0.6 0.5 1.3 0.4 2 0.6 0.3 0 0.5 0 0.7 0.2q0.2 0.1 0.4 0.3v0.1q0 0 0 0c0.4 0 0.8 0.3 1 0.5q0.1 0.1 0.1 0.2c-0.6 0.4-1.3 0.5-2.1 0.5q0-0.1-0.1-0.1c-0.8-0.3-1.4-0.7-1.7-1.6-0.1-0.2-0.1-0.5-0.3-0.7q0 0 0 0z"/><path class="C" d="m52.5 72c0.5 0 1 0.1 1.5 0.1 0.1-0.1 0-0.3 0.1-0.5l0.2-0.1c-0.1 0.2-0.1 0.5-0.2 0.7l-0.1-0.1v0.1h-0.3-0.1l0.1 0.1v0.1q-0.1 0.1-0.3 0.2l0.1 0.1c-0.2 0.1-0.5 0.2-0.7 0.2-0.3 0-0.4 0.1-0.6 0.2 0.1 0.2 0.2 0.3 0.1 0.5q0 0.1 0 0.1c0 0.1 0 0.2 0 0.3-0.1-0.1-0.1-0.1-0.2-0.2 0 0.2-0.1 0.3-0.2 0.4-0.2 0.1-0.4 0.2-0.6 0.4l-0.3 0.2c-0.1-0.1-0.1-0.1-0.1-0.2q-0.2 0-0.3-0.1c-0.1 0-0.1-0.1-0.1-0.2-0.2 0-0.4 0.1-0.6 0.2q0-0.2-0.1-0.4c0.1-0.2 0.2-0.2 0.3-0.3l0.1-0.1c-0.2-0.1-0.2-0.2-0.4-0.3q0.2 0 0.4-0.1c0.2 0 0.4-0.2 0.6-0.4 0.1-0.1 0.3-0.3 0.4-0.4 0.3-0.2 0.5-0.3 0.8-0.4q0.2-0.1 0.5-0.1z"/><path class="f" d="m50.2 73.3c0.2 0 0.4-0.2 0.6-0.4-0.1 0.4-0.3 0.5-0.6 0.8-0.2-0.1-0.2-0.2-0.4-0.3q0.2 0 0.4-0.1z"/><path class="t" d="m51.3 73.5l-0.1-0.1q0-0.1 0.1-0.2c0.1-0.3 0.4-0.5 0.7-0.6 0.4-0.2 0.9-0.1 1.4 0l0.1 0.1c-0.2 0.1-0.5 0.2-0.7 0.2-0.3 0-0.4 0.1-0.6 0.2q-0.4 0.3-0.9 0.4z"/><path class="m" d="m52.2 73.1c0.1 0.2 0.2 0.3 0.1 0.5q0 0.1 0 0.1c0 0.1 0 0.2 0 0.3-0.1-0.1-0.1-0.1-0.2-0.2 0 0.2-0.1 0.3-0.2 0.4-0.2 0.1-0.4 0.2-0.6 0.4l-0.3 0.2c-0.1-0.1-0.1-0.1-0.1-0.2q-0.2 0-0.3-0.1c-0.1 0-0.1-0.1-0.1-0.2-0.2 0-0.4 0.1-0.6 0.2q0-0.2-0.1-0.4c0.1-0.2 0.2-0.2 0.3-0.3l0.1-0.1c0.4 0.1 0.7 0 1.1-0.2q0.5-0.1 0.9-0.4z"/><path class="t" d="m50.5 74.3c0.2-0.1 0.4-0.2 0.6-0.4 0.4-0.2 0.6-0.2 1-0.1 0 0.2-0.1 0.3-0.2 0.4-0.2 0.1-0.4 0.2-0.6 0.4l-0.3 0.2c-0.1-0.1-0.1-0.1-0.1-0.2q-0.2 0-0.3-0.1c-0.1 0-0.1-0.1-0.1-0.2z"/><path class="G" d="m68.6 90.3c1.2-0.2 2.4-0.3 3.5-0.3 0 0.4 0.2 1 0 1.3-0.5 0.1-0.6-0.7-1-0.7-0.1 0-0.1 0-0.2 0.1-0.2 0.4 0 1.4 0.1 1.8 0 0.2 0.1 0.2 0.2 0.3 0.2 0.1 0.3 0.3 0.6 0.4v0.1 0.1c-0.4 0.1-1.7 0.2-2.1 0.1h-0.1c0-0.4 0.5-0.6 0.8-0.9-0.2-0.5-0.1-1.5-0.5-1.9-0.4 0.1-0.6 0.8-1 0.9l-0.1-0.1c-0.2-0.3-0.2-0.8-0.2-1.2z"/><path class="f" d="m41.3 62.1c0.1 0 0.1 0 0.3 0.1 0 0.3-0.3 0.5 0 0.7 0.3 0.1 0.5 0.1 0.7 0.3 0.3 0.3 0.6 0.8 0.8 1.2v0.1c0.3 0.5 0.9 0.6 0.6 1.3q0 0 0 0.1c0-0.2 0-0.4-0.2-0.6 0 0 0-0.1-0.1 0-0.2 0-0.3 0.3-0.4 0.5-0.3 0.4-0.5 0.7-0.9 1.1 0 0 0 0-0.1 0l-0.1-0.1v-0.1q-0.1-0.2-0.2-0.4c-0.3-0.5-0.3-1.3-0.4-1.9h0.1c-0.1-0.5-0.1-1-0.1-1.4 0-0.3 0.1-0.7 0-0.9z"/><path class="i" d="m42.1 66.9c0-0.1-0.1-0.2-0.1-0.3 0-0.3 0.1-0.8 0.3-1 0.2-0.1 0.2-0.1 0.4-0.1 0.1 0 0.2 0.1 0.3 0.3-0.3 0.4-0.5 0.7-0.9 1.1z"/><path class="p" d="m41.3 63l0.3 0.1c0.1 0.3 0 0.7 0.1 1 0.1 0.3 0.2 0.6 0.3 0.9 0.2 0.4 0 0.8-0.1 1.3 0 0.1 0 0.3 0 0.5v-0.1q-0.1-0.2-0.2-0.4c-0.3-0.5-0.3-1.3-0.4-1.9h0.1c-0.1-0.5-0.1-1-0.1-1.4z"/><path class="v" d="m41.7 65c0.3 0.6 0.1 1.1 0.2 1.7q-0.1-0.2-0.2-0.4 0 0 0 0 0 0 0-0.1c-0.1-0.4 0-0.8 0-1.2z"/><path class="C" d="m41.4 64.4c0.1 0.2 0.2 0.4 0.3 0.6 0 0.4-0.1 0.8 0 1.2q0 0.1 0 0.1 0 0 0 0c-0.3-0.5-0.3-1.3-0.4-1.9z"/><path class="G" d="m57.6 91.8c0.8-0.7 1.6-0.7 2.7-0.7 0.2 0.4 0.4 1 0.2 1.5q0 0 0 0c-0.5-0.2-0.9-0.8-1.4-0.8q-0.5 0-0.8 0.4c-0.2 0.2-0.3 0.5-0.3 0.8 0 0.3 0.2 0.6 0.4 0.8 0.7 0.6 1.6-0.1 2.4-0.2l-0.2 0.6q-0.3 0.2-0.6 0.3c-0.5 0.2-1.1 0.3-1.6 0.1-0.6-0.3-1-0.9-1.3-1.5 0.1-0.5 0.3-0.9 0.5-1.3z"/><path class="p" d="m62.4 77.5c0.2 0.1 0.3 0.2 0.4 0.3 0.6 0.5 0.7 1.4 0.7 2.2-1.2 0.3-2.4 0.4-3.7 0.6-0.4 0-0.7 0.1-1 0.3 0.7-1.1 1.5-0.9 2.3-1.7 0.5-0.4 0.8-1.1 1.3-1.6z"/><path class="G" d="m57.9 86.6c0 0.5 0.1 0.9 0 1.4-0.1 0-0.2 0-0.3 0-0.2-0.1-0.2-0.3-0.3-0.5-0.1-0.2-0.3-0.2-0.5-0.2 0 0.6 0.1 1.2 0.1 1.7 0.1 0.5 0.7 0.7 1 0.9-0.3 0.1-0.6 0.2-0.9 0.2-0.4 0.1-1.3 0.3-1.6 0q0 0 0-0.1c0.1-0.3 0.4-0.4 0.7-0.5 0-0.5 0-1.7-0.3-2.1-0.1 0-0.1 0-0.1 0-0.3 0.1-0.4 0.5-0.5 0.7q-0.3 0.1-0.7 0.2 0-0.5 0-1c0-0.2 0-0.3 0.1-0.4 0.8-0.2 2.4-0.3 3.3-0.3z"/><path class="w" d="m56.9 89c-0.1-0.4-0.5-1.1-0.4-1.5 0.1-0.1 0.2-0.1 0.3-0.2 0 0.6 0.1 1.2 0.1 1.7z"/><path class="G" d="m51.9 91.9c0.1 0 0.2 0 0.3 0q0.3 0.3 0.3 0.7c0 0.2 0 0.4-0.1 0.5-0.1 0.1-0.1 0.1-0.2 0.1-0.3-0.1-0.5-0.4-0.7-0.6q-0.5 0-1 0.1 0 0.2 0 0.3c-0.1 0.2 0 0.2 0 0.3 0.4 0.3 1.1 0.2 1.5 0.2q0.2 0.1 0.3 0.2c0.2 0.2 0.5 0.4 0.5 0.8q0 0.2-0.2 0.4c-0.6 0.6-1.5 0.6-2.3 0.7-0.2 0-0.3 0-0.4-0.1-0.3-0.3-0.1-0.9-0.1-1.3 0.4 0.3 0.9 0.6 1.5 0.7q0 0 0 0c0.3-0.1 0.7-0.2 0.9-0.5-0.3-0.4-1.6-0.2-2.3-0.7-0.2-0.1-0.3-0.3-0.3-0.5 0-0.2 0.1-0.4 0.2-0.6 0.5-0.6 1.4-0.6 2.1-0.7z"/><path class="f" d="m78.5 76.8c0.1-0.1 0.2-0.3 0.4-0.3 0.2 0 0.6 0.4 0.8 0.5 0.9 0.8 1 1.8 1.2 2.9-0.2-0.2-0.3-0.3-0.6-0.3-0.4-0.1-1.3-0.2-1.7 0.1q0 0.1-0.1 0.1c-0.1 0.1-0.2 0.1-0.2 0.2-0.1-0.1-0.1-0.2-0.2-0.3-0.2-0.6 0.1-2.4 0.4-2.9z"/><path class="y" d="m54.8 74.4c1 0.5 1.7 0.4 2.6 1.2-0.6 0.3-1 0.3-1.6 0.3q0 0 0 0-0.2 0-0.4-0.1c-0.1 0-0.2 0.1-0.3 0.2-0.7 0.1-1.2 0.1-1.9 0-0.2 0.1-0.4 0.2-0.6 0.3q-0.2 0.2-0.5 0.4-0.2 0-0.4-0.1h-0.1l-0.2 0.1q-0.1 0-0.1 0c-0.2-0.1-0.1-0.1-0.3 0 0-0.1 0-0.2-0.1-0.3-0.1-0.1-0.2-0.1-0.3-0.2q0.2-0.1 0.3-0.2 0 0 0 0c0.3-0.3 0.4-0.5 0.4-0.9 0.4 0.1 0.5 0.4 0.8 0.4h0.4c0.2-0.1 0.4-0.1 0.7-0.2 0.6-0.1 1.1-0.5 1.6-0.9z"/><path class="h" d="m51.9 76.4c0.2-0.2 0.5-0.1 0.7-0.1q-0.2 0.2-0.5 0.4-0.2 0-0.4-0.1z"/><path class="p" d="m52.1 75.5h0.4q-0.1 0-0.1 0c-0.2 0.3-0.5 0.3-0.6 0.7 0 0.1 0 0.1 0.1 0.2l-0.2 0.2h-0.1v-0.1c0-0.2-0.1-0.7 0.1-0.9 0.1-0.1 0.3-0.1 0.4-0.1z"/><path class="p" d="m53.2 76q0.1 0 0.2-0.1 0.1 0 0.2-0.1c0.3-0.1 1.9-0.2 2.1-0.2l0.1 0.3q0 0 0 0-0.2 0-0.4-0.1c-0.1 0-0.2 0.1-0.3 0.2-0.7 0.1-1.2 0.1-1.9 0z"/><path class="v" d="m51.3 75.1c0.4 0.1 0.5 0.4 0.8 0.4-0.1 0-0.3 0-0.4 0.1-0.2 0.2-0.1 0.7-0.1 0.9v0.1l-0.2 0.1q-0.1 0-0.1 0c-0.2-0.1-0.1-0.1-0.3 0 0-0.1 0-0.2-0.1-0.3-0.1-0.1-0.2-0.1-0.3-0.2q0.2-0.1 0.3-0.2 0 0 0 0c0.3-0.3 0.4-0.5 0.4-0.9z"/><path class="m" d="m50.9 76c0.3 0.2 0.5 0.2 0.7 0.5v0.1l-0.2 0.1q-0.1 0-0.1 0c-0.2-0.1-0.1-0.1-0.3 0 0-0.1 0-0.2-0.1-0.3-0.1-0.1-0.2-0.1-0.3-0.2q0.2-0.1 0.3-0.2z"/><path class="o" d="m59.7 70.9c0.8-0.1 1.7 0 2.5 0.1 0.4 0.3 0.5 0.4 0.7 0.8q-0.2 0.6-0.5 1.1c-0.2 0.1-0.3 0.3-0.5 0.3h-0.1c-0.1-0.5 0.1-1.1 0.3-1.5-0.5 0-0.9 0-1.4-0.1-1.2-0.1-2.2 0-3.4 0.3-0.7 0.3-1.3 0.6-1.8 1.1 0.5 0.4 0.6 0.6 0.8 1.2-0.2-0.1-0.4-0.1-0.5-0.1-0.6-0.2-0.8-0.7-1-1.1q0.1-0.1 0.2-0.3c0.9-1.1 3.3-1.6 4.7-1.8z"/><path class="A" d="m60.1 30.2c1 1.5 1.6 3.2 2.7 4.7 0.6 0.8 2 2 2.4 2.7l-0.1 0.1c-0.1-0.3-1-1.3-1.2-1.5-0.3-0.1-0.5-0.4-0.8-0.5-0.5-0.3-1.1-0.2-1.6-0.4-0.2-0.1-0.5 0-0.8 0.1-0.2-0.2-0.2-0.4-0.3-0.7v0.1-0.2 0.1c-0.1 0.2 0 1.3-0.1 1.7q0 0.2 0 0.4c0 0 0-0.1 0-0.1-0.1-0.1-0.1-0.1 0-0.2l-0.1-0.1c0.2-2 0.2-4.2-0.1-6.2z"/><path class="G" d="m64.3 85.9q0.1 0 0.1 0c0.5 0 0.8 0.3 1.1 0.6 0.2 0.2 0.3 0.4 0.3 0.7-0.1 1-1.5 0.7-1.8 1.1-0.1 0.1-0.1 0.2-0.1 0.3 0.2 0.3 0.5 0.3 0.8 0.4 0.1 0.1 0.1 0.1 0 0.2-0.1 0.1-0.3 0.2-0.5 0.2q-0.8 0.1-1.6 0.1c0.2-0.3 0.3-0.6 0.6-0.9-0.2-0.5-0.1-1.1-0.4-1.7-0.3-0.2-0.4-0.4-0.5-0.8q1-0.1 2-0.2z"/><path class="e" d="m63.8 86.5c0.5 0 0.9 0.2 1.3 0.5q-0.2 0.3-0.4 0.5-0.2 0.1-0.5 0.1-0.1 0-0.3 0-0.2-0.1-0.3-0.3c0-0.2 0.1-0.6 0.2-0.8z"/><path class="z" d="m90 72.2c0.4 0 0.9 0 1.3 0.1 0.9 0.2 2.3 1.7 3 2.3q-0.9-0.2-1.9-0.4c-1.6-0.2-3.1-0.3-4.7-0.4 0.6-0.7 1.3-1.4 2.3-1.6z"/><path class="G" d="m55.9 91.5c0.2 0 0.3 0 0.5 0.1 0.3 0.3 0.3 0.8 0.3 1.1q-0.4 0-0.7 0l-0.4-0.4q-0.2 0-0.5-0.1c-0.2 0-0.4 0-0.5 0.1q-0.1 0.3-0.1 0.5c0 0.1 0.1 0.2 0.2 0.3 0.2-0.1 0.4-0.3 0.6-0.4 0.1-0.1 0.2-0.1 0.4 0 0.2 0.2 0.3 0.9 0.3 1.2q-0.7-0.1-1.4-0.2 0 0.3 0 0.6c0.2 0.1 0.3 0.1 0.5 0.1 0.5 0.1 0.8-0.2 1.1-0.5q0.3-0.1 0.6-0.4 0 0.7 0.1 1.3c-0.5 0.1-3.1 0.5-3.4 0.3q0-0.1 0-0.1c0-0.2 0.4-0.5 0.5-0.8 0-0.3-0.1-1-0.2-1.3-0.3-0.4-0.5-0.6-0.7-1.1 0.9-0.1 1.9-0.2 2.8-0.3z"/><path class="s" d="m84 70.3q0.3 0.1 0.7 0.1 0 0.1 0 0.2c0.1 0.5 0.2 2.4-0.1 2.8-0.2 0.2-1.5 0.2-1.8 0.2-0.5-1-0.9-1.8-1-2.9 0.7-0.2 1.5-0.3 2.2-0.4z"/><path class="G" d="m60.7 91c0.9 0 1.9-0.2 2.8-0.1 0.4 0.3 0.7 0.5 0.9 1q-0.4 0.5-0.9 0.9c0.4 0.4 0.9 0.6 1.4 0.9l0.1 0.2-0.1 0.1c-0.2 0.1-0.5 0.1-0.8 0.2q0 0-0.1-0.1c-0.4-0.2-0.8-1-1.4-1.1-0.1 0-0.1 0.1-0.2 0.2 0 0.4 0.4 0.5 0.6 0.8 0 0.1 0 0.1 0 0.2-0.4 0.2-1.4 0.2-1.9 0.2q0.2-0.4 0.5-0.7 0-0.4 0-0.8 0-0.5 0-0.9c-0.3-0.3-0.6-0.7-0.9-1z"/><path class="m" d="m62.9 91.5c0.1 0 0.2 0 0.3 0 0.1 0.1 0.2 0.3 0.2 0.4q0.1 0.2-0.1 0.3c-0.1 0.1-0.4 0.1-0.6 0.1-0.1 0-0.3 0-0.4-0.1-0.1-0.1-0.2-0.2-0.2-0.3q0.1-0.1 0.1-0.2c0.2-0.2 0.5-0.2 0.7-0.2z"/><path class="J" d="m47.3 74.4q0 0.4 0 0.8 0 0 0 0c0.1 0.2 0 0.5 0.1 0.7q0.1 0 0.2 0.1l0.2-0.1c0.3 0.4-0.1 1 0.4 1.2 0.1 0.1 0.3 0.3 0.5 0.3q0.1 0 0.1 0c-0.1 0.1-0.1 0.2-0.1 0.3 0 0.3 0 0.5-0.1 0.7l0.1 0.1v0.3c-0.4 0.2-0.9 0.3-1.4 0.4l-0.6 0.4c-0.1-0.1-0.1-0.2-0.2-0.3 0-0.1-0.1-0.1-0.3-0.2-0.2-0.1-0.7-0.6-0.9-0.7 0 0-0.1 0-0.1 0 0.3-0.5 0.5-1.1 0.9-1.6l0.2-0.1v0.1c0.2-0.2 0.3-0.2 0.6-0.2 0.1-0.1 0.3 0 0.4 0.1h0.1c0.2-0.8-1-1.6-1-2 0.1-0.1 0.2-0.2 0.3-0.3q0.2 0 0.4 0z"/><path class="y" d="m47.3 74.4q0 0.4 0 0.8 0 0-0.1-0.1c-0.1-0.1-0.3-0.2-0.3-0.3 0-0.2 0.1-0.3 0.2-0.4z"/><path class="p" d="m47.3 79.2c-0.1 0-0.1 0-0.2 0 0.3-0.3 0.9-0.3 1.2-0.7 0.1-0.1 0.2-0.1 0.3-0.1l0.1 0.1v0.3c-0.4 0.2-0.9 0.3-1.4 0.4z"/><path class="p" d="m46.1 76.8l0.2-0.1v0.1q0.1 0 0.1 0 0 0.1 0.1 0.2c0.4 0.3 0.5 0.8 0.9 0.9-0.1 0-0.4 0-0.4 0.1 0 0-0.1 0.1-0.1 0.1 0 0.2-0.2 0.2-0.3 0.3q-0.1 0-0.2 0c0-0.1 0-0.2 0-0.3q0.1-0.1 0.2-0.2 0 0-0.1-0.1c-0.1-0.2-0.2-0.4-0.2-0.6 0-0.1 0.1-0.1 0.2-0.2q-0.2-0.1-0.4-0.2z"/><path class="i" d="m46.6 77.9q0 0-0.1-0.1c-0.1-0.2-0.2-0.4-0.2-0.6 0-0.1 0.1-0.1 0.2-0.2 0.1 0.2 0.3 0.4 0.4 0.6-0.1 0.2-0.2 0.2-0.3 0.3z"/><path class="G" d="m65.5 91.8h-0.1c-0.1-0.3-0.6-0.7-0.6-1 0.4-0.3 2.7-0.5 3.3-0.4 0.1 0.3 0.2 0.8 0 1.1-0.3 0.3-0.5 0-0.6 0.5 0 0.1 0.2 0.3 0.2 0.5-0.3 0.2-1.4-0.1-1.4 0.2-0.1 0.2 0.1 0.4 0.1 0.5q0.2 0.1 0.4 0.2c0.2 0 0.5-0.1 0.6-0.3 0.2-0.1 0.3-0.4 0.4-0.6l0.7 0.1q0 0.5 0.1 1-0.7 0.2-1.4 0.3c-0.3 0-0.7 0-0.9 0.1h-1q0-0.3-0.1-0.6c0.2 0 0.3-0.1 0.3-0.3 0.1-0.4 0-0.9 0-1.3z"/><path class="e" d="m66.7 91c0.1 0 0.3 0 0.4 0 0.2 0.1 0.4 0.2 0.5 0.4-0.1 0.3-0.3 0-0.7 0.2q-0.1 0.1-0.3 0.2c-0.1 0-0.2 0-0.4-0.1-0.1-0.1-0.1-0.1-0.1-0.2 0.1-0.3 0.3-0.4 0.6-0.5z"/><path class="A" d="m85.9 57.9h0.1c0.1 0.1 0.1 0.2 0.1 0.3q0.1-0.1 0.2-0.2h0.1c0 0.3-0.9 1.2-1.1 1.5-0.4-0.1-0.8-0.2-1.2-0.1-0.3 0-0.6 0.2-0.9 0.4-1.2 0.7-2 0.7-3.2 1.1q-0.8 0.3-1.4 0.7h-0.1-0.1q0.1-0.1 0.1-0.1c0.1-0.3 0.3-0.5 0.5-0.7 0.8-1 1.9-2.2 3.1-2.6 0.8-0.2 1.3 0.3 1.9 0.6 0.7-0.2 1.2-0.6 1.9-0.9z"/><path class="G" d="m58.5 88.8c-0.1-0.5-0.2-0.9 0-1.3 0.3-0.6 0.8-1 1.3-1.2 0.4-0.1 0.8-0.1 1.1 0.1 0.5 0.2 0.9 0.7 1.1 1.2 0.1 0.5 0.1 0.9-0.1 1.3-0.3 0.4-0.8 0.8-1.3 0.9-0.3 0.1-0.8 0-1.2-0.2-0.3-0.2-0.6-0.6-0.8-0.7z"/><path class="l" d="m60.2 86.9q0.2 0 0.4 0.1 0.1 0 0.1 0.1 0.1 0 0.1 0 0.1 0.1 0.1 0.1 0.1 0 0.1 0.1 0 0 0.1 0.1 0 0 0 0.1 0 0 0.1 0.1 0 0 0 0.1c0.1 0.3 0.1 0.7-0.1 1-0.2 0.3-0.4 0.5-0.7 0.6q-0.2 0-0.3-0.1c-0.3-0.1-0.6-0.4-0.8-0.7-0.1-0.3-0.1-0.6 0-0.9 0.2-0.4 0.5-0.5 0.9-0.7z"/><path class="K" d="m78.3 80c0-0.1 0.1-0.1 0.2-0.2q0.1 0 0.1-0.1c0.4-0.3 1.3-0.2 1.7-0.1 0.3 0 0.4 0.1 0.6 0.3 0.2 1.2 0.6 1.6 0.2 2.9-0.1 0.3-0.2 0.6-0.4 0.9 0 0.1 0 0.1-0.1 0.1q-0.1 0-0.1 0c-0.2 0.1-0.2 0.1-0.3 0.2-0.4-0.3-0.8-0.7-1.1-1.1 0-0.1-0.1-0.3-0.2-0.4-0.2-0.2-0.6-0.4-0.8-0.6l-0.3-0.2c-0.1-0.2-0.3-0.3-0.4-0.5 0.1-0.2 0-0.3 0.1-0.5 0-0.1 0.2-0.2 0.4-0.3 0.2-0.1 0.3-0.1 0.5-0.1z"/><path class="z" d="m78.4 80.3v0.1q-0.1 0-0.2 0.1c-0.2 0-0.5 0.4-0.6 0.6q0 0.1 0 0.1c0.1 0.3 0.4 0.4 0.5 0.7l-0.3-0.2c-0.1-0.2-0.3-0.3-0.4-0.5 0.1-0.2 0-0.3 0.1-0.5 0-0.1 0.2-0.2 0.4-0.3 0.2-0.1 0.3-0.1 0.5-0.1z"/><path class="m" d="m78.9 82.5c0.6 0.5 1 0.9 1.6 1.3-0.2 0.1-0.2 0.1-0.3 0.2-0.4-0.3-0.8-0.7-1.1-1.1 0-0.1-0.1-0.3-0.2-0.4z"/><path class="L" d="m36.7 63.2c0.2 0 0.3-0.2 0.5-0.3 0.2 0 0.3 0 0.5 0h0.1c-0.8 0.5-1.1 0.9-1.3 1.7-0.1 0.2-0.2 0.5-0.2 0.7-0.1 0.2-0.1 0.4-0.1 0.7 0.1 0.2 0.1 0.4 0 0.5-0.2 0.3-0.5 0.4-0.7 0.8 0.2 0.1 0.4 0.2 0.5 0.4-0.1 0.1-0.1 0.1-0.2 0.2-0.2 0.1-0.3 0.1-0.4 0.2-0.3 0.3-0.5 0.7-0.8 1.1 0 0.2-0.3 0.5-0.5 0.6-0.1 0.1-0.1 0.2-0.3 0.3-0.1 0.1-0.3 0.3-0.6 0.3q-0.1 0-0.1 0c-0.1 0.1-0.2 0.1-0.3 0.1q0-0.1-0.1-0.2c-0.2-0.2-0.6-0.5-1-0.5q0 0 0 0v-0.1q-0.2-0.2-0.4-0.3c-0.2-0.2-0.4-0.2-0.7-0.2l0.1-0.2c0.1 0 0.2 0 0.3 0q0 0.1 0.1 0.1c0.2 0.1 0.3 0.3 0.5 0.4q0 0 0 0 0 0 0.1-0.1 0 0 0 0 0-0.1 0.1-0.2c0.1-0.3 0.8-0.7 1-0.8 0.3 0 0.3 0.4 0.5 0.6 0.1-0.3 0.2-0.5 0.3-0.8 0.2-0.3 0.5-0.6 0.6-0.9 0.2-0.4 0.2-0.7 0.4-1 0.2-0.4 0.5-0.7 0.6-1.1q0.1-0.2 0-0.3 0-0.2 0-0.3c0.1-0.5 1.1-1.1 1.5-1.4z"/><path class="p" d="m35.5 67.3q0 0 0 0 0-0.1 0-0.1c0.1-0.3-0.2-0.6-0.1-0.9 0.4-0.2 0.6-0.7 0.9-1-0.1 0.2-0.1 0.4-0.1 0.7 0.1 0.2 0.1 0.4 0 0.5-0.2 0.3-0.5 0.4-0.7 0.8z"/><path class="f" d="m31.7 69.7h0.1q0-0.1 0-0.1 0-0.2 0.1-0.3c0.1-0.2 0.6-0.6 0.9-0.7 0.3 0 0.3 0.3 0.5 0.5 0.2-0.2 0.4-0.3 0.6-0.5q0.2 0.1 0.3 0.2c0.2 0.1 0.3 0.2 0.4 0.4 0 0.2-0.3 0.5-0.5 0.6-0.1 0.1-0.1 0.2-0.3 0.3-0.1 0.1-0.3 0.3-0.6 0.3q-0.1 0-0.1 0c-0.1 0.1-0.2 0.1-0.3 0.1q0-0.1-0.1-0.2c-0.2-0.2-0.6-0.5-1-0.5q0 0 0 0z"/><path class="y" d="m33.9 68.6q0.2 0.1 0.3 0.2c0.2 0.1 0.3 0.2 0.4 0.4 0 0.2-0.3 0.5-0.5 0.6-0.1 0.1-0.1 0.2-0.3 0.3-0.1 0.1-0.3 0.3-0.6 0.3q-0.1 0-0.1 0 0.1-0.1 0.2-0.1 0.1 0 0.2-0.1c0.1-0.1 0.1-0.1 0.1-0.2-0.1-0.1-0.2 0-0.4 0 0 0-0.1-0.1-0.2-0.2q0.2-0.4 0.3-0.7c0.2-0.2 0.4-0.3 0.6-0.5z"/><path class="p" d="m34.2 68.8c0.2 0.1 0.3 0.2 0.4 0.4 0 0.2-0.3 0.5-0.5 0.6q0.1-0.2 0.2-0.3c0.1-0.1 0.1-0.1 0.1-0.2-0.1-0.1-0.2-0.1-0.3-0.2q0.1 0 0.2 0 0-0.1-0.1-0.3z"/><path class="G" d="m89.1 68.4c0.7 0.4 1.3 0.8 2 1.1-0.5 0.4-0.9 0.9-1.4 1.3-0.7 0.7-1.4 1.4-2 2.1-0.5 0.6-0.9 1.2-1.4 1.8q-0.4 0.5-0.9 1c0.5-1.6 0.5-3.5 0.1-5.1 0.6-0.4 1.2-0.6 1.7-0.9q1-0.6 1.9-1.3z"/><path class="A" d="m81.6 61.4c0.1 0 0.3 0 0.5 0 0.6 0.2 1.6 1 2.4 1.3 0.3 0.5 0.4 1.1 0.8 1.6-0.7 0.3-1.3 0.7-1.9 0.9-0.5 0.2-0.8 0.1-1.2-0.1-1.4-0.9-2.7-1.7-4.2-2.4 1.1-0.6 2.3-1.2 3.6-1.3z"/><path class="M" d="m57 72.9c0.8-0.5 2.7-1 3.5-0.8 0.2 0 0.3 0.1 0.3 0.2 0.3 0.5 0.3 1.1 0.5 1.6 0.3 1.2 0.8 2.1 0.4 3.4q0 0.1-0.1 0.2 0 0.1-0.1 0.2 0 0.1-0.1 0.2 0 0.1-0.1 0.2-0.1 0.1-0.2 0.2-0.1 0-0.2 0.1-0.1 0.1-0.2 0.1 0 0.1-0.2 0.2 0 0 0 0c-0.3-0.3-0.6-0.7-0.7-1.1-0.1-0.3 0.1-1.7-0.3-1.8-0.1 0.1-0.1 0.2-0.2 0.3-0.1 0.3 0.1 0.7 0 1.1-0.1 0-0.1 0-0.2 0-0.2-0.1-0.6-0.6-0.7-0.8q0-0.2-0.1-0.5c0-0.4 0-0.9 0-1.4 0-0.1 0-0.1 0-0.1h-0.2q0 0-0.1 0c-0.2 0-0.6-0.4-0.7-0.5q-0.2-0.5-0.3-1z"/><path class="j" d="m90.2 53.7c0.2 0.2 0.6 1.2 0.8 1.5q0.2 0.2 0.4 0.5c0.2 0 0.2-0.1 0.3-0.1-0.1 0.1-0.1 0.2-0.2 0.3-1 0.8-2.4 1-3.7 0.9 0-0.4-0.7-2-0.9-2.4-0.2-0.2-0.4-0.3-0.5-0.5-0.2-0.4-0.2-0.9-0.3-1.3-0.2 0-0.4 0-0.6-0.1-0.1 0-0.1 0-0.1-0.1l0.2 0.1c0-0.3 0-0.6 0.1-0.8q0 0 0.1-0.1-0.2 0.1-0.4 0.2c0-0.1 0.1-0.1 0.2-0.2 0.7-0.2 2.6-0.7 3.2-0.5q-0.1 0-0.2 0c0 0.1 0 0.1 0.1 0.1 0.3 0.2 0.8 0.6 0.9 0.9v0.1h0.1v-0.1l0.1 0.1q0 0 0 0c0.2 0.1 0.2 0.3 0.4 0.4q-0.1 0.1-0.1 0.2-0.2-0.1-0.4-0.1c-0.2-0.1-0.3 0-0.5 0.1-0.1 0-0.2 0-0.4 0l-0.1 0.1v0.1c0.3 0.3 1.2 0 1.4 0.3 0 0.1 0 0.3 0.1 0.4z"/><path class="s" d="m88.9 52.1c0.1-0.1 0.2-0.1 0.4-0.1 0 0 0.1 0 0.1 0.1q0 0.1-0.1 0.2-0.1 0.1-0.2 0.3-0.1-0.2-0.3-0.3 0.1-0.1 0.1-0.2z"/><path class="l" d="m88.8 52.3c0 0.1-0.1 0.2-0.2 0.2-0.1-0.1-0.1-0.1-0.1-0.2 0-0.2 0.1-0.6 0.2-0.8l0.1 0.2q0 0.2 0.1 0.4 0 0.1-0.1 0.2z"/><path class="A" d="m73.2 32.8c0.2 0.8 0.1 1.6 0.3 2.4 0.2 1.7 0.8 2.6 1.5 4.1-0.4 0.5-1.1 1.4-1.7 1.7v-0.1q0.2-0.1 0.3-0.3c0.3-0.2 0.5-0.6 0.8-0.8q0 0 0 0c-0.4-0.1-0.4-0.3-0.7-0.4-0.5-0.1-0.9-0.1-1.4-0.2-0.3-0.1-0.8-0.4-1.1-0.3q-0.1 0-0.1 0c-0.4-0.3-1.2-0.3-1.6-0.6q0 0 0 0c-0.1-0.1-0.3 0.1-0.5 0.1-0.4 0.2-0.3-0.1-0.6-0.2-0.2 0-0.4 0.2-0.6 0.3-0.3 0.1-0.7 0.1-1 0.3-0.1 0.1-0.2 0.1-0.2 0.3 0 0.1 0.3 0.7 0.4 0.8q0.2 0.1 0.2 0.3v0.1c-0.7-0.7-0.9-1.8-1.4-2.7-0.2-0.3-0.4-0.7-0.7-1 1.5 0 3.3 0.1 4.7 0.5-0.3 0.3-1 0.7-1.1 1.1v0.1q0.2 0.1 0.4 0c1-0.3 2.4-1.9 2.9-2.9 0.4-0.9 0.7-1.7 1.2-2.6z"/><path class="N" d="m46.1 70.7c0.6 0.2 1.4 0 2.1 0q0.7 0 1.5 0.1c0.5 0.1 1 0.2 1.5 0.1q0.1 0 0.1 0.1 0 0.1-0.1 0.3c-0.2-0.1-0.4-0.1-0.6 0.1-0.1 0.1-0.2 0.2-0.2 0.3l0.2 0.2c0.4 0 0.8 0 1.3 0.2 0 0 0 0 0.1 0-0.3 0.1-0.5 0.2-0.8 0.4-0.1 0.1-0.3 0.3-0.4 0.4-0.2 0.2-0.4 0.4-0.6 0.4q-0.2 0.1-0.4 0.1c0.2 0.1 0.2 0.2 0.4 0.3l-0.1 0.1c-0.1 0.1-0.2 0.1-0.3 0.3l-0.3-0.1-0.1-0.2c-0.1-0.1-0.3 0-0.4 0q-0.2 0.1-0.5 0.3l-0.1 0.5-0.1 0.2c0 0.1 0 0.2 0 0.4 0.1 0.3 0 0.7 0.1 1q0.1 0.1 0.1 0.1v0.1c0 0.2 0 0.4-0.1 0.5q-0.1 0.1-0.2 0.2c-0.5-0.2-0.1-0.8-0.4-1.2l-0.2 0.1q-0.1-0.1-0.2-0.1c-0.1-0.2 0-0.5-0.1-0.7q0 0 0 0 0-0.4 0-0.8h-0.2q-0.2 0-0.4 0c-0.1 0.1-0.2 0.2-0.3 0.3 0 0.4 1.2 1.2 1 2h-0.1c-0.1-0.1-0.3-0.2-0.4-0.1-0.3 0-0.4 0-0.6 0.2v-0.1c0-0.2-0.1-0.7-0.2-1v-0.1q-0.1-0.3-0.3-0.5c-0.1-0.3-0.2-0.6-0.4-0.9-0.1-0.1-0.7-1.2-0.8-1.3 0.5-0.4 1.1-0.7 1.7-0.8 0.2-0.1 0.2-0.5 0.3-0.7q-0.3 0-0.6-0.1 0.1 0 0.3 0c0.1-0.1 0.1-0.1 0.1-0.2-0.1-0.2-0.2-0.3-0.3-0.4z"/><path class="p" d="m46.7 74.4q0.2 0 0.3-0.1 0.2-0.2 0.4-0.5l0.1 0.1c0 0.1 0 0.2 0 0.3 0 0.1-0.1 0.2-0.2 0.2h-0.2q-0.2 0-0.4 0z"/><path class="h" d="m46.1 75.7q0.4 0.2 0.7 0.4c-0.2 0.1-0.3 0.5-0.5 0.6 0-0.2-0.1-0.7-0.2-1z"/><path class="p" d="m46.6 72.8c0.1 0 0.2 0 0.2 0.1 0.1 0 0.2 0.2 0.2 0.3 0 0.1-0.1 0.2-0.2 0.3-0.2 0-0.2 0-0.3-0.1q-0.3-0.1-0.7-0.2c0.3-0.1 0.6-0.2 0.8-0.4z"/><path class="h" d="m49 73.8q0 0 0 0 0.1-0.1 0.1-0.1c0-0.1 0.1-0.2 0.2-0.2 0.1-0.2 0.3-0.2 0.5-0.1 0.2 0.1 0.2 0.2 0.4 0.3l-0.1 0.1c-0.1 0.1-0.2 0.1-0.3 0.3l-0.3-0.1-0.1-0.2c-0.1-0.1-0.3 0-0.4 0z"/><path class="C" d="m49.4 73.8h0.7c-0.1 0.1-0.2 0.1-0.3 0.3l-0.3-0.1z"/><path class="y" d="m48 75.2c0-0.2-0.1-0.4 0-0.6 0.1-0.2 0.3-0.3 0.5-0.5l-0.1 0.5-0.1 0.2c0 0.1 0 0.2 0 0.4 0.1 0.3 0 0.7 0.1 1q0.1 0.1 0.1 0.1v0.1c0 0.2 0 0.4-0.1 0.5q-0.1 0.1-0.2 0.2c-0.5-0.2-0.1-0.8-0.4-1.2l-0.2 0.1v-0.1q0.1-0.1 0.3-0.1c0.1-0.2 0.1-0.4 0.1-0.6z"/><path class="h" d="m48.1 75.1c0-0.2 0.1-0.2 0.2-0.3 0 0.1 0 0.2 0 0.4 0.1 0.3 0 0.7 0.1 1q0.1 0.1 0.1 0.1c-0.1-0.1-0.3-0.3-0.4-0.4q0-0.4 0-0.8z"/><path class="p" d="m44.6 72.9c0.5-0.4 1.1-0.7 1.7-0.8-0.1 0.2-0.2 0.4-0.3 0.5-0.2 0.1-0.6 0.3-0.5 0.6 0 0.1 0.1 0.3 0.2 0.4 0.2 0 0.5 0 0.6 0.2 0.1 0.1 0.1 0.1 0 0.2-0.3 0.3-0.6 0-0.9 0.2-0.1-0.1-0.7-1.2-0.8-1.3z"/><path class="z" d="m50.2 73.3q-0.1 0-0.1 0c-0.4-0.3 0-0.9 0-1.3q-0.5-0.2-0.8-0.5c0.1 0.1 0.3 0.3 0.4 0.3 0.1 0 0.3-0.1 0.4-0.2 0.1 0 0.2 0.1 0.3 0.1l0.2 0.2c0.4 0 0.8 0 1.3 0.2 0 0 0 0 0.1 0-0.3 0.1-0.5 0.2-0.8 0.4-0.1 0.1-0.3 0.3-0.4 0.4-0.2 0.2-0.4 0.4-0.6 0.4z"/><path class="z" d="m50.8 72.4l0.4 0.1c-0.1 0.1-0.3 0.3-0.4 0.4-0.2 0.2-0.4 0.4-0.6 0.4q0.1 0 0.1-0.1 0.1-0.1 0.2-0.1c0.2-0.2 0.2-0.4 0.2-0.6z"/><path class="F" d="m89.5 58.1c0.4-0.1 1.5-0.1 1.9 0.1 0.2 0.1 0.3 0.3 0.4 0.5 0.1 0.3 0.2 0.9 0 1.1-0.3 0.2-1.1-0.2-1.5-0.2-0.1 0.1-0.1 0.1-0.1 0.2 0 0.2 0.1 0.3 0.2 0.4 0.5 0.4 3.6 0.8 4.3 0.8 0.2 0 0.5 0 0.7-0.1-0.7 0.7-1.6 0.9-2.5 1.1-0.7 0.3-1.2 0.7-1.8 1.2-1.1-0.5-2.6-1.2-3.6-1.9-0.4-0.4-0.8-0.9-1.2-1.2l-0.1-0.1c0.5-0.6 0.9-1.3 1.5-1.7z"/><path class="O" d="m79.9 64.5c0.7 0.5 2.7 2 3.3 2.2q0.3 0.1 0.6 0c0.5-0.1 1.1-0.6 1.4-1q0.2-0.3 0.3-0.6c0.4 0.3 0.7 0.8 1.1 1.2 0.4 0.4 0.8 0.8 1.2 1.3-0.7 0-1.5-0.1-2 0.4q-0.1 0.1-0.1 0.2v-0.1q0 0.1 0 0.1c0.1 0.1 0.1 0.1 0.3 0.1 0.7 0 1.5-0.1 2.2-0.1-0.6 0.5-1.8 1.4-2.6 1.5-0.6 0.1-1.2 0-1.8 0-0.5-0.1-1 0-1.6 0-0.5 0-2-0.6-2.5-0.8 0.1-0.1 0.1 0 0.3 0 0.1-0.6-0.4-1.3-0.6-1.8-0.2-0.6-0.1-1.1 0.2-1.6 0.2-0.3 0.1-0.7 0.3-1z"/><path class="P" d="m76.8 40.7c0.3 0.1 0.5 0.1 0.8 0.1 1.3-0.4 3.4-1.8 4.4-2.7 0.7-0.6 1.4-1.3 2.2-1.8-0.6 2.7-1.4 5.5-0.7 8.3 0.3 0 0.6 0 0.9 0 0.8 0.7 1.3 1.6 2 2.4-0.6 0.8-1.4 1.5-2.1 2.3q-0.1 0-0.2 0.1c0.1-0.3 0.8-0.7 0.9-1.1-0.3-0.2-1.7-2.9-1.9-3.4-0.2-0.4-2.8-2.3-3.3-2.8-0.5-0.5-0.9-1-1.4-1.6-0.4 0.1-0.7 0.4-1.2 0.4-0.2 0-0.3 0-0.4-0.1z"/><path class="F" d="m84.8 60.4c0.8 0.1 1.9 1.2 2.6 1.6 1.9 1.1 4.7 2 6.1 3.7 0.4 0.5 0.6 1.1 0.6 1.7-0.1 0.5-0.3 0.9-0.7 1.2q0 0.1-0.1 0.1-0.1 0.1-0.2 0.1-0.1 0.1-0.1 0.1-0.1 0-0.2 0.1-0.1 0-0.2 0-0.1 0-0.2 0-0.1 0-0.2 0-0.1 0-0.2 0c-1.1-0.1-2.4-1.1-3-2-0.4-0.3-0.9-0.4-1.2-0.7-0.6-0.3-1-0.9-1.4-1.3 0.4 0.2 1.5 0.9 2 0.8 0 0 0 0 0 0 0-0.1 0-0.2 0-0.2-0.2-0.2-0.4-0.3-0.6-0.4-0.5-0.3-0.9-0.6-1.3-1-0.4-0.3-1.2-1.1-1.2-1.6 0.3-0.1 1.8 1.5 2.4 1.6 0.1 0 0.1 0 0.2-0.1 0-0.1 0-0.2-0.1-0.2-0.1-0.2-0.4-0.4-0.6-0.6-0.5-0.4-1-0.8-1.5-1.3-0.4-0.5-0.6-1-0.9-1.6z"/><path class="j" d="m68.4 51c1.7-0.2 3.2-0.6 4.9-0.3q-0.1 0-0.2 0c0 0.2 0.1 0.3 0.2 0.5 0 0.1 0 0.3 0 0.4q0.2 0.5 0.4 0.9 0 0.1 0 0.1c0.2 0.1 0.3 0.1 0.3 0.3 0.1 0.3 0.1 0.7 0.2 1.1 0.3 0.7 0.7 1.3 1 1.9 0.1 0.3 0.1 0.8 0.3 1-0.1 0.1-0.4 0.2-0.6 0.3-1.1 0.6-2.5 1-3.8 0.9l-0.1-0.1v0.1h0.1-0.1l0.2-0.1c-0.2-0.4-0.4-0.8-0.5-1.2-0.2-0.5-0.2-1.1-0.5-1.5-0.2-0.5-1.2-2-1.1-2.4 0-0.4-0.1-0.5-0.3-0.8h0.1l0.1 0.1c0-0.2-0.1-0.4-0.1-0.6q-0.1 0-0.1 0c-0.3-0.1-0.4-0.1-0.7-0.2q0.2-0.2 0.3-0.4z"/><path class="s" d="m83.2 74.1c0.2 0 0.4-0.1 0.7 0 0.1 0 0.2 0 0.2 0.1 0.2 0.3 0.2 0.9 0.2 1.2 0.2 1.1 0.2 2.2 0.4 3.3 0.4 2.6 1.5 5.8 2.8 8-0.6 1.1-1.2 2.1-1.8 3.2q-0.6 1.1-1.1 2.3c-0.1 0.2-0.2 0.3-0.3 0.5-0.6-1.2-1.1-2.4-1.8-3.6q-0.3-0.6-0.8-1.3c-0.3-0.4-0.7-0.9-0.9-1.4 0.3-1.2 1-2.5 1.3-3.8 0.2-0.7 0.2-1.4 0.3-2.1l0.4-3.7c0.1-0.5 0.2-1.1 0.2-1.7 0-0.2 0-0.7 0.1-0.9 0 0 0-0.1 0.1-0.1z"/><path class="Q" d="m63 70.5c-0.2-0.3-0.5-0.6-0.8-0.9-0.3-0.2-1.6-0.6-1.5-1.1q0 0 0 0c0.5-0.1 2.5 1 3.1 1.2 1 0.4 2 0.7 2.9 1 1.2 0.4 2.3 0.9 3.4 1.3 1.4 0.5 2.7 1 4 1.7 0.2 0.1 0.5 0.2 0.7 0.3q0 0.1 0 0.1c1.1 0.5 2.1 1.2 3.2 1.8v0.2c0.1 0.2 0.4 0.4 0.5 0.7-0.3 0.5-0.6 2.3-0.4 2.9 0.1 0.1 0.1 0.2 0.2 0.3l0.1 0.3c-0.2 0-0.3 0-0.5 0.1-0.2 0.1-0.4 0.2-0.4 0.3-0.1 0.2 0 0.3-0.1 0.5 0.1 0.2 0.3 0.3 0.4 0.5-0.3-0.1-0.5-0.2-0.7-0.3-0.3-0.1-0.9-0.4-1.1-0.3 0 0.1-0.1 0.4 0.1 0.5 0.2 0.2 0.6 0.3 0.8 0.6q0.1 0.1 0.2 0.1-0.6 0.3-1.1 0.5c-0.2 0.1-0.5 0.2-0.8 0.2-0.2 0-0.2 0-0.3-0.2-0.1-0.3-0.1-0.7-0.1-1-0.1-0.8-0.2-2.6-0.8-3.1-0.2-0.2-0.4-0.2-0.6-0.2-0.8 0.1-1.6 0.3-2.4 0.4-0.5 0.3-1.2-0.2-1.7 0.1-0.2 0.1-0.5 0.1-0.8 0.1-0.3 0.1-0.7 0.1-1 0.2-0.2 0.1-0.4 0.1-0.5 0.1-0.2 0.1-0.5 0.1-0.6 0-0.2-0.8-0.2-1.9-0.3-2.7-0.1-0.1-0.1-0.3-0.2-0.5-0.1-0.2-0.2-0.4-0.4-0.6-0.8-0.7-2-0.4-2.9-0.4-0.3-0.3-0.4-0.6-0.5-0.9 0.5-0.6 1-1.1 1.2-1.9 0.3-0.7 0-1.2-0.3-1.9z"/><path class="y" d="m74.5 78c0-0.1 0 0-0.1-0.1q0-0.1 0-0.2c-0.1-0.1 0-0.2 0-0.2 0.3-0.1 0.5 0.1 0.7 0.2-0.2 0-0.5 0.1-0.6 0.3z"/><path class="i" d="m71.1 76.9c0 0.4 0 0.7-0.3 1 0 0.1-0.2 0.3-0.3 0.4l-0.1-0.1v-0.2z"/><path class="F" d="m67.7 75.4c0-0.2-0.1-0.3-0.1-0.5 0.1-0.2 0.2-0.3 0.3-0.4q0.2-0.1 0.3-0.3c-0.2 0.5 0 0.7 0 1.1-0.1 0.1-0.1 0.2-0.3 0.3-0.1-0.1-0.1-0.1-0.2-0.2z"/><path class="F" d="m68.2 74.2c0.3-0.1 0.5-0.1 0.8 0.1 0.3 0.1 0.4 0.5 0.5 0.8q0 0 0 0.1 0 0 0.1 0c0.1 0.2 0.4 1.3 0.6 1.3h0.1l-0.1 0.1c0.3-0.3 0.1-0.4 0.3-0.7 0.2-0.3 1.2-1.3 1.5-1.2q0.4 0 0.6 0.4c0.1 0.2 0.6 0.7 0.5 1 0 0.1-0.1 0.1-0.1 0.1-0.1 0-0.1-0.1-0.1-0.2 0-0.3-0.2-0.6-0.4-0.8-0.2 0.3-0.4 0.7-0.7 0.9l-0.1-0.1q0.3-0.2 0.4-0.5c0-0.2-0.1-0.3-0.3-0.4q-0.3 0.2-0.6 0.5-0.4 0.4-0.8 1c-0.1 0-0.2 0.1-0.3 0.1-0.3-0.2-0.4-1-0.6-1.4q0 0-0.1 0c0-0.2 0-0.5-0.2-0.6-0.2-0.2-0.4-0.1-0.6-0.1-0.1 0.2-0.1 0.3-0.1 0.5q0 0 0 0c-0.1 0.3 0.1 1.2 0 1.3q0-0.1 0-0.2c0-0.3-0.2-0.7-0.3-0.9 0-0.4-0.2-0.6 0-1.1z"/><path class="y" d="m72.2 74.8c0.1 0.1 0.2 0.1 0.2 0.3 0 0.1-0.1 0.2-0.2 0.3q0 0.1-0.1 0.1c0-0.2-0.1-0.3-0.3-0.4 0.1 0 0.3-0.2 0.4-0.3z"/><path class="n" d="m71.2 75.6c0.1-0.3 0.2-0.6 0.4-0.7 0.2-0.2 0.3-0.1 0.6-0.1-0.1 0.1-0.3 0.3-0.4 0.3q-0.3 0.2-0.6 0.5z"/><path class="R" d="m68.6 74.6c0.2 0 0.4-0.1 0.6 0.1 0.2 0.1 0.2 0.4 0.2 0.6q0.1 0 0.1 0c0.2 0.4 0.3 1.2 0.6 1.4 0.1 0 0.2-0.1 0.3-0.1q0 0.1-0.1 0.3c-0.1 0.2-0.2 0.5-0.4 0.6-0.2 0-0.3 0-0.4-0.1q-0.1 0.1-0.2 0.2c-0.1-0.2-0.2-0.3-0.3-0.4-0.1-0.3-0.2-0.6-0.3-0.9-0.1-0.4-0.1-0.8-0.2-1.2 0-0.2 0-0.3 0.1-0.5z"/><path class="z" d="m68.6 74.6c0.2 0 0.4-0.1 0.6 0.1 0.2 0.1 0.2 0.4 0.2 0.6q0.1 0 0.1 0c0.2 0.4 0.3 1.2 0.6 1.4 0.1 0 0.2-0.1 0.3-0.1q0 0.1-0.1 0.3 0 0 0 0.1c-0.1 0-0.4 0.1-0.5 0.1-0.5-0.1-0.4-1.9-0.8-2.4-0.1-0.1-0.3-0.1-0.4-0.1z"/><path class="y" d="m70.4 78v0.2q-0.1 0.2-0.2 0.4c0.3 0 0.5-0.3 0.8-0.4 0.3 0 0.6 0.2 0.9 0.2 0.4 0 0.7-0.2 1.1 0 0.1 0.1 0.2 0.1 0.3 0.1 0.3-0.1 0.5-0.1 0.7 0.1 0.5 0.3 0.7 1.3 0.8 1.8q0 0.2 0 0.5c0.1 0.2 0.4 0.5 0.4 0.7-0.1 0.1-0.2 0.2-0.2 0.4 0 0.1 0.1 0.2 0.1 0.3 0 0.2-0.1 0.4 0.1 0.6 0.3 0 0.6-0.1 0.8-0.2 0.2-0.1 0.3-0.1 0.5-0.2 0.1-0.1 0.1-0.1 0.1-0.2 0.1-0.5-0.5-0.4-0.7-0.7-0.1-0.2-0.1-0.4 0-0.6 0-0.1 0-0.1 0.1-0.1 0.4 0.1 0.9 0.2 1.3 0.5v-0.1l0.1-0.2v0.1c0.1 0.2 0.3 0.3 0.4 0.5-0.3-0.1-0.5-0.2-0.7-0.3-0.3-0.1-0.9-0.4-1.1-0.3 0 0.1-0.1 0.4 0.1 0.5 0.2 0.2 0.6 0.3 0.8 0.6q0.1 0.1 0.2 0.1-0.6 0.3-1.1 0.5c-0.2 0.1-0.6 0.2-0.8 0.2-0.2 0-0.2 0-0.3-0.2-0.1-0.3-0.1-0.7-0.1-1-0.1-0.8-0.2-2.6-0.8-3.1-0.2-0.2-0.4-0.2-0.6-0.2-0.8 0.1-1.6 0.3-2.4 0.4-0.4 0-0.8-0.1-1.1 0q0.2-0.5 0.5-0.9z"/><path class="D" d="m71.8 75.1c0.2 0.1 0.3 0.2 0.3 0.4q-0.1 0.3-0.4 0.5c-0.2 0.2-0.4 0.6-0.6 0.9l-0.7 1.1q-0.3 0.4-0.5 0.9c0.3-0.1 0.7 0 1.1 0-0.5 0.3-1.2-0.2-1.7 0.1q0.1-0.1 0.1-0.2c0.1-0.4 0.1-0.9-0.1-1.2q0.1-0.1 0.2-0.2c0.1 0.1 0.2 0.1 0.4 0.1 0.2-0.1 0.3-0.4 0.4-0.6q0.1-0.2 0.1-0.3 0.4-0.6 0.8-1 0.3-0.3 0.6-0.5z"/><path class="n" d="m68.5 75.1c0.1 0.4 0.1 0.8 0.2 1.2-0.1 0.2-0.1 1.1-0.3 1.3-0.2-0.2-0.5-0.2-0.8-0.3-0.2 0.3-0.5 0.5-0.8 0.7-0.2-0.5-0.5-0.9-0.7-1.3-0.1-0.1-0.1-0.3-0.2-0.5q0.1 0.1 0.1 0.1 0.1 0 0.1 0c0.2 0 0.3 0.2 0.4 0.3 0.1 0.1 0.2 0.1 0.3 0.1 0.3-0.2-0.1-0.8 0-1.1 0.1-0.2 0.5-0.2 0.8-0.4q0 0 0 0l0.1 0.2c0.1 0.1 0.1 0.1 0.2 0.2 0.2-0.1 0.2-0.2 0.3-0.3 0.1 0.2 0.3 0.6 0.3 0.9q0 0.1 0 0.2c0.1-0.1-0.1-1 0-1.3q0 0 0 0z"/><path class="z" d="m63 70.5c-0.2-0.3-0.5-0.6-0.8-0.9-0.3-0.2-1.6-0.6-1.5-1.1q0 0 0 0c0.5-0.1 2.5 1 3.1 1.2 1 0.4 2 0.7 2.9 1 1.2 0.4 2.3 0.9 3.4 1.3 1.4 0.5 2.7 1 4 1.7 0.2 0.1 0.5 0.2 0.7 0.3q0 0.1 0 0.1 0 0 0 0c-0.3 0-0.9-0.4-1.1-0.5v0.2h-0.1v0.1l0.2 0.1q0 0 0 0c-0.2 0-0.3-0.1-0.4-0.1-0.5-0.4-0.9-0.3-1.3-0.5-0.4-0.2-1.5-0.7-1.8-0.8-0.1 0-0.1 0-0.1-0.1 0.2 0 0.4 0 0.7 0l-0.1-0.1v-0.1c-0.2 0-2.4-0.8-2.4-0.8q-0.1 0-0.1 0 0.2 0 0.3 0.2c0 0 0 0 0 0.1h-0.1v0.1h-0.1q0.2 0.2 0.5 0.3c-1.1-0.3-2-1-3-1.2l0.3-0.1v-0.1h0.1v-0.1c-0.6-0.4-1.9-0.6-2.6-0.9-1-0.4-1.9-1.1-2.9-1.2 0.1 0.4 1.1 0.7 1.5 1 0.3 0.2 0.6 0.5 0.7 0.9q0 0 0 0z"/><path class="m" d="m78 76.1c0.1 0.2 0.4 0.4 0.5 0.7-0.3 0.5-0.6 2.3-0.4 2.9 0.1 0.1 0.1 0.2 0.2 0.3l0.1 0.3c-0.2 0-0.3 0-0.5 0.1q-0.1 0-0.1 0c-0.4-0.3-0.8-0.6-1.2-0.8-0.6-0.4-1.4-0.8-1.9-1.3-0.2-0.1-0.2-0.1-0.2-0.3 0.1-0.2 0.4-0.3 0.6-0.3 0.9 0.4 1.5 1.2 2.3 1.6 0-1.2-0.1-2.2 0.6-3.2z"/><path class="f" d="m68.7 76.3c0.1 0.3 0.2 0.6 0.3 0.9 0.1 0.1 0.2 0.2 0.3 0.4 0.2 0.3 0.2 0.8 0.1 1.2q0 0.1-0.1 0.2c-0.2 0.1-0.5 0.1-0.8 0.1-0.3 0.1-0.7 0.1-1 0.2-0.2 0.1-0.4 0.1-0.5 0.1-0.2 0.1-0.5 0.1-0.6 0-0.2-0.8-0.2-1.9-0.3-2.7 0.2 0.4 0.5 0.8 0.7 1.3 0.3-0.2 0.6-0.4 0.8-0.7 0.3 0.1 0.6 0.1 0.8 0.3 0.2-0.2 0.2-1.1 0.3-1.3z"/><path class="y" d="m68.6 78.8l0.3 0.1c-0.1 0.1-0.2 0.2-0.4 0.2-0.3 0.1-0.7 0.1-1 0.2q0 0 0-0.1c0.3-0.3 0.7-0.4 1.1-0.4z"/><path class="i" d="m68.7 76.3c0.1 0.3 0.2 0.6 0.3 0.9 0.1 0.1 0.2 0.2 0.3 0.4 0.2 0.3 0.2 0.8 0.1 1.2q0 0.1-0.1 0.2c-0.2 0.1-0.5 0.1-0.8 0.1 0.2 0 0.3-0.1 0.4-0.2l-0.3-0.1c0-0.3 0.1-1-0.2-1.2 0.2-0.2 0.2-1.1 0.3-1.3z"/><path class="p" d="m69 77.2c0.1 0.1 0.2 0.2 0.3 0.4-0.1 0.4 0 0.8-0.2 1.2-0.1-0.5-0.1-1.1-0.1-1.6z"/><path class="h" d="m69.3 77.6c0.2 0.3 0.2 0.8 0.1 1.2q0 0.1-0.1 0.2c-0.2 0.1-0.5 0.1-0.8 0.1 0.2 0 0.3-0.1 0.4-0.2l0.2-0.1c0.2-0.4 0.1-0.8 0.2-1.2z"/><path class="G" d="m41.5 52.7q0.1 0 0.2 0.1c0.7 0.2 1.8 1.5 2.4 2q0.7 0.6 1.4 1.1c1.6 1.2 3.4 2.1 5.2 3 3.1 1.4 6.3 2.7 9.5 4 1.8 0.7 3.6 1.5 5.4 2.2 1.4 0.5 2.9 0.9 4.2 1.5 1.8 0.6 3.6 1.3 5.3 1.9 1 0.3 1.9 0.5 2.9 0.7q1.4 0.4 2.8 0.9c0.1 0.4 0 0.8 0 1.2 0 1.6-0.1 3.7 0.4 5.2q-0.4-0.2-0.8-0.4c-0.9-0.5-2-1-2.9-1.6-0.8-0.5-1.6-1.1-2.5-1.4-1-0.5-2-0.9-3-1.3-1.4-0.6-2.9-1.2-4.4-1.7-2.3-0.9-4.7-1.6-7-2.6-2.9-1.1-5.6-2.6-8.3-4.1-3.7-2.1-7.3-4.2-10.4-7-0.5-0.4-1.1-0.9-1.5-1.4 0.4-0.7 0.8-1.5 1.1-2.3z"/><path class="M" d="m28.5 52.5c0.5-1.2 1.2-2.6 2.4-3.2 0.5-0.2 1.1 0 1.6 0.2 1.4 0.5 2.3 1.6 2.9 3q0.3 0.7 0.5 1.4c0.3 1.2 0.9 3.9 2 4.4 0.5 0.2 1 0.2 1.4 0.2 0.4-0.5 0.8-0.9 1.3-1.1 0.2-0.1 0.4-0.2 0.6-0.3 0.1 0 0.2-0.1 0.4 0 0.3 0.1 1.3 1.1 1.7 1.4q1.2 1 2.6 1.9c1 0.8 2.2 1.5 3.3 2.1 0.5 0.4 1.7 0.9 2.1 1.3l4.1 2.1c0.9 0.5 3.4 1.6 4 2.3 0.2 0.2 0.4 0.4 0.4 0.7v0.1c-0.5 0.2-1.1 0.2-1.7 0.3q-1 0.2-2 0.4c-0.1-0.3 0-0.6-0.1-0.9v-0.4c0-0.2 0-0.5-0.2-0.6 0-0.1 0-0.1-0.1-0.1-0.2 0.1-0.3 0.3-0.4 0.4-0.1 0.3-0.2 0.7-0.2 1.1q0.3 0.1 0.3 0.3c0.1 0.2 0 0.4-0.1 0.5-0.2 0.3-0.5 0.6-0.7 0.9-0.2 0.2-0.2 0.4-0.3 0.6l-0.2 0.1c-0.1 0.2 0 0.4-0.1 0.5-0.5 0-1-0.1-1.5-0.1q-0.3 0-0.5 0.1c-0.1 0-0.1 0-0.1 0-0.5-0.2-0.9-0.2-1.3-0.2l-0.2-0.2c0-0.1 0.1-0.2 0.2-0.3 0.2-0.2 0.4-0.2 0.6-0.1q0.1-0.2 0.1-0.3 0-0.1-0.1-0.1c-0.5 0.1-1 0-1.5-0.1q-0.8-0.1-1.5-0.1c-0.7 0-1.5 0.2-2.1 0 0.1 0.1 0.2 0.2 0.3 0.4 0 0.1 0 0.1-0.1 0.2q-0.2 0-0.3 0-1.5 0-2.9 0.2c-1 0.1-2 0.3-2.9 0.5q-1.8 0.3-3.5 0.6c0.6-0.6 1.3-1 2-1.5 1.7-1.3 3.9-3.3 5-5.1v-0.1q0-0.1 0-0.1c0.3-0.7-0.3-0.8-0.6-1.3v-0.1c-0.2-0.4-0.5-0.9-0.8-1.2-0.2-0.2-0.4-0.2-0.7-0.3-0.3-0.2 0-0.4 0-0.7-0.2-0.1-0.2-0.1-0.3-0.1-0.3-0.3 0-1.1-0.1-1.5-0.1 0-0.1 0-0.1 0q-0.1 0-0.2 0c-0.3-0.1-0.4-0.2-0.5-0.4-0.2 0.2 0 0.6 0 0.9 0 0.2 0.1 0.7 0 0.9h-0.1c-0.1 0.2 0.1 0.6 0.1 0.8q0 0.4 0 0.8c-0.7-0.5-1.3-1-2.3-0.8q-0.2 0-0.3 0.1h-0.1c-0.2 0-0.3 0-0.5 0-0.2 0.1-0.3 0.3-0.5 0.3-0.4 0.3-1.4 0.9-1.5 1.4q0 0.1 0 0.3 0.1 0.1 0 0.3c-0.1 0.4-0.4 0.7-0.6 1.1-0.2 0.3-0.2 0.6-0.4 1-0.1 0.3-0.4 0.6-0.6 0.9-0.1 0.3-0.2 0.5-0.3 0.8-0.2-0.2-0.2-0.6-0.5-0.6-0.2 0.1-0.9 0.5-1 0.8q-0.1 0.1-0.1 0.2 0 0 0 0-0.1 0.1-0.1 0.1 0 0 0 0c-0.2-0.1-0.3-0.3-0.5-0.4q-0.1 0-0.1-0.1c-0.1 0-0.2 0-0.3 0l-0.1 0.2c-0.7-0.2-1.4-0.1-2-0.6q0-0.1 0-0.1c-0.2-0.4-0.6-1-0.5-1.3 0.1 0 0.2 0.1 0.3 0.1 0.1 0 0.2-0.2 0.3-0.3-0.5-0.4-0.8-0.9-1.1-1.4 0.9 0.5 1.5 1.2 2.5 1.4q0.2 0 0.4-0.1c1.5-0.7 1.8-2 2.1-3.4 0-0.4 0.1-0.9 0.2-1.2l0.1-0.1c0.1 0 0.3 0 0.5-0.1 0-0.1 0-0.1-0.1-0.3l-0.2 0.1q-0.1-0.1-0.1-0.2c-0.2-0.2 0-0.9 0-1.2q0.1-0.2 0.1-0.4 0-0.4-0.1-0.7c0-0.4 0-0.8 0-1.3 0-1-0.2-2.1-0.5-3.1 0-0.2-0.1-0.5 0.1-0.7 0.1-0.2 0.5-0.3 0.7-0.4-0.3-0.2-0.5-0.3-0.9-0.4q-0.1 0-0.1 0c-0.3 0-0.5-0.3-0.6-0.5-0.2 0.1-0.3 0.2-0.5 0.2l-0.3-0.3c-0.4-0.1-0.7 0-1.1 0l-0.1-0.1c0-0.2-0.1-0.2-0.2-0.3q-0.3 0.4-0.6 0.7c-0.2 0-0.4 1-0.8 1.1 0-0.6 0.4-1.1 0.4-1.7q0 0 0-0.1z"/><path class="v" d="m48.9 67.4c0.1 0 0.2-0.1 0.3 0 0.1 0.1 0.1 0.2 0.1 0.3q-0.1 0.1-0.2 0.3c-0.1-0.2-0.1-0.4-0.2-0.6z"/><path class="v" d="m33.3 61.8c0.2 0.1 0.7 0.1 0.8 0.3q0 0 0 0c-0.2 0.2-0.6 0.2-0.8 0.2q-0.2 0-0.4-0.1c0.1 0 0.3 0 0.5-0.1 0-0.1 0-0.1-0.1-0.3z"/><path class="v" d="m40.6 57.4c0.2-0.1 0.4-0.2 0.6-0.3 0 0.3 0.1 0.7-0.1 0.9-0.2-0.1-0.3-0.4-0.5-0.6z"/><path class="n" d="m43.2 64.3l0.1 0.2c0.1-0.1 0.1-0.1 0.1-0.2 0 0 0-0.1 0-0.2-0.2-0.2-0.2-0.5-0.3-0.8v-0.1c0.1 0.1 0.5 1 0.5 1.1q0 0.1-0.1 0.2 0 0.1-0.2 0.1c0.1 0.1 0.2 0.2 0.2 0.3 0.1 0 0.2 0 0.2-0.1 0.1 0 0.2 0 0.3 0.1 0.1 0 0.1 0.1 0.1 0.2 0 0.2-0.2 0.7-0.4 0.8 0 0 0 0 0 0.1v-0.1q0-0.1 0-0.1c0.3-0.7-0.3-0.8-0.6-1.3v-0.1z"/><path class="h" d="m33.2 59.9q0.4-0.2 0.8-0.4 0.2 0.2 0.5 0.4c-0.5 0.1-1 0.3-1.5 0.6q0.1-0.2 0.1-0.4 0.1-0.1 0.1-0.2z"/><path class="h" d="m29.5 52.5c0.2-0.4 0.7-0.7 0.9-1.1 0.2 0 0.5 0.2 0.7 0.3q-0.3 0.1-0.4 0.3c-0.4 0.2-0.6 0.6-1 0.8 0-0.2-0.1-0.2-0.2-0.3z"/><path class="n" d="m54.9 69.1q0-0.1 0-0.3h-0.1v-0.1h0.1q-0.1 0.1-0.1 0.2c-0.1 0-0.2 0-0.3 0-0.2 0-0.2-0.1-0.3-0.2h0.1l0.2 0.1c0.3-0.1 0.4-0.8 0.6-1.1 0.1-0.1 0.3-0.1 0.5-0.2 0.1 0 0.2-0.2 0.4-0.2q0 0.1-0.1 0.2 0 0 0 0c0.1 0 0.2 0 0.3 0l-0.2 0.1c0 0.1 0 0.6 0 0.8 0-0.2 0-0.5-0.2-0.6 0-0.1 0-0.1-0.1-0.1-0.2 0.1-0.3 0.3-0.4 0.4-0.2 0.2-0.3 0.7-0.4 1z"/><path class="h" d="m28.7 67c0.3 0.3 1.3 0.8 1.4 1 0 0.1-0.1 0.1-0.2 0.2q-0.3 0.1-0.5-0.1c-0.4-0.2-0.7-0.5-1-0.8 0.1 0 0.2-0.2 0.3-0.3z"/><path class="z" d="m29.7 52.8c0.4-0.2 0.6-0.6 1-0.8q0 0-0.1 0c0 0.3-0.2 0.4-0.3 0.6v0.1c0.4-0.1 0.8-0.4 1.2-0.3l0.1 0.1-0.1 0.2 0.1 0.1c0.2 0 0.4 0 0.6-0.1-0.2 0.1-0.4 0.2-0.5 0.3-0.2 0.1-0.3 0.2-0.5 0.2l-0.3-0.3c-0.4-0.1-0.7 0-1.1 0z"/><path class="n" d="m51.4 70.7c0.2 0.2 0.3 0.3 0.3 0.5 0 0.1 0 0.1-0.1 0.2q-0.2 0-0.3 0c-0.2-0.1-0.4 0-0.6 0.1q0 0.1-0.1 0.1v0.1c0.3 0.2 1.1 0.2 1.4 0.1 0.4-0.1 0.6-0.3 1.1-0.2q-0.1 0.1-0.1 0.2l-0.1 0.1q-0.2 0-0.4 0.1-0.3 0-0.5 0.1c-0.1 0-0.1 0-0.1 0-0.5-0.2-0.9-0.2-1.3-0.2l-0.2-0.2c0-0.1 0.1-0.2 0.2-0.3 0.2-0.2 0.4-0.2 0.6-0.1q0.1-0.2 0.1-0.3 0.1-0.2 0.1-0.3z"/><path class="h" d="m33 58.1c0 0.1 0 0.4 0.1 0.4 0.4 0.3 1 0.1 1.4 0.3-0.3 0.2-0.6 0.3-0.9 0.5-0.2 0.1-0.4 0.3-0.4 0.5 0 0.1 0 0.1 0 0.1q0 0.1-0.1 0.2 0-0.4-0.1-0.7c0-0.4 0-0.8 0-1.3z"/><path class="p" d="m33.1 58.7c0.2 0.2 0.4 0.3 0.5 0.6-0.2 0.1-0.4 0.3-0.4 0.5 0 0.1 0 0.1 0 0.1q0 0.1-0.1 0.2 0-0.4-0.1-0.7c0.1-0.2 0.1-0.5 0.1-0.7z"/><path class="z" d="m35.2 64.9v0.1h-0.1q0-0.1-0.1-0.2c0 0 0 0 0 0-0.1-0.1-0.1-0.2-0.1-0.3 0.1-0.1 0.2-0.2 0.2-0.3 0.2-0.2 0.5-0.4 0.7-0.6 0.3-0.3 0.5-0.7 0.9-0.9 0.1-0.1 0.3 0 0.4 0.1 0.2 0 0.5-0.3 0.7-0.4 0.2-0.1 0.2-0.1 0.4 0q-0.1 0.1-0.2 0.1c-0.4 0.3-1.1 0.3-1.3 0.7-0.4 0.3-1.4 0.9-1.5 1.4q0 0.1 0 0.3z"/><path class="h" d="m40.8 58.4c0.2 0 0.3 0 0.4 0.1 0.1 0.1 0.2 0.2 0.2 0.3 0 0.2-0.1 0.5-0.2 0.7h-0.2q-0.2 0-0.5 0-0.1-0.1-0.2-0.2-0.1-0.2-0.1-0.4c0.1-0.2 0.4-0.4 0.6-0.5z"/><path class="z" d="m54.9 69.1c0.1-0.3 0.2-0.8 0.4-1-0.1 0.3-0.2 0.7-0.2 1.1q0.3 0.1 0.3 0.3c0.1 0.2 0 0.4-0.1 0.5-0.2 0.3-0.5 0.6-0.7 0.9-0.2 0.2-0.2 0.4-0.3 0.6l-0.2 0.1c-0.1 0.2 0 0.4-0.1 0.5-0.5 0-1-0.1-1.5-0.1q0.2-0.1 0.4-0.1 0.4 0 0.7 0.1c0.1 0 0.2 0 0.3-0.1l-0.1-0.2c0.1-0.7 1-1.1 1.4-1.7q0.1-0.1 0-0.3 0-0.1-0.2-0.2c-0.1 0.1 0 0.3-0.1 0.5q0 0 0-0.1c0-0.2-0.1-0.6 0-0.7q0-0.1 0-0.1z"/><path class="z" d="m51.3 63.8l4.1 2.1c0.9 0.5 3.4 1.6 4 2.3-0.4-0.2-0.7-0.4-1.1-0.6q-0.7-0.4-1.4-0.8-0.9-0.5-1.9-0.9c-0.4-0.2-0.7-0.3-1.1-0.5-0.4-0.2-0.8-0.5-1.2-0.7-0.4-0.3-0.9-0.5-1.3-0.7-0.1-0.1-0.1-0.1-0.1-0.2z"/><path class="z" d="m32.4 52.7c0.2-0.1 0.3-0.1 0.5 0 0.2 0.2 0.5 0.7 0.5 1 0 0.1 0 0.1-0.1 0.2-0.3-0.2-0.5-0.3-0.9-0.4q-0.1 0-0.1 0c-0.3 0-0.5-0.3-0.6-0.5 0.1-0.1 0.3-0.2 0.5-0.3z"/><path class="p" d="m32.4 52.7c0.1 0.1 0.1 0.1 0.1 0.2-0.1 0.2-0.2 0.4-0.2 0.5q0.1 0.1 0.1 0.1-0.1 0-0.1 0c-0.3 0-0.5-0.3-0.6-0.5 0.1-0.1 0.3-0.2 0.5-0.3z"/><path class="z" d="m40.1 59.8q0-0.1 0-0.2h0.1c0.1 0.2 0.1 0.4 0.3 0.5 0.4 0.5 1 0.3 1 1q0.1 0 0.1 0.1c0-0.2 0.1-0.9 0-1.1q-0.1 0-0.1-0.1h0.1 0.1c0.2 0.7-0.1 1.3-0.1 1.9 0 0.2 0 0.4 0.1 0.6 0 0.2 0 0.3 0.1 0.4 0.2 0 0.3-0.1 0.5 0 0.3 0.2 0.8 1.1 0.9 1.4l-0.1 0.1c-0.2-0.4-0.5-0.9-0.8-1.2-0.2-0.2-0.4-0.2-0.7-0.3-0.3-0.2 0-0.4 0-0.7-0.2-0.1-0.2-0.1-0.3-0.1-0.3-0.3 0-1.1-0.1-1.5-0.1 0-0.1 0-0.1 0q-0.1 0-0.2 0c-0.3-0.1-0.4-0.2-0.5-0.4q-0.1-0.2-0.3-0.4z"/><path class="f" d="m40.1 59.8q0.2 0.2 0.3 0.4c-0.2 0.2 0 0.6 0 0.9 0 0.2 0.1 0.7 0 0.9h-0.1c-0.1 0.2 0.1 0.6 0.1 0.8q0 0.4 0 0.8c-0.7-0.5-1.3-1-2.3-0.8q-0.2 0-0.3 0.1h-0.1c-0.2 0-0.3 0-0.5 0-0.2 0.1-0.3 0.3-0.5 0.3 0.2-0.4 0.9-0.4 1.3-0.7q0.1 0 0.2-0.1c0.2-0.1 0.3-0.1 0.4-0.1 0.1 0 0.2-0.1 0.2-0.2 0-0.1 0-0.1-0.1-0.2l-0.1-0.1q0-0.1 0-0.2l-0.2-0.1c0.2 0 0.3 0 0.5-0.1 0-0.1 0-0.1 0.1-0.2 0.3 0 0.3 0.3 0.5 0.4q0.2 0.1 0.3 0c0.9-0.4 0.1-1.2 0.3-1.8q0 0 0 0z"/><path class="m" d="m46.1 70.7c-0.1 0-0.1 0-0.1-0.1 0-0.2 0.8-0.7 1-0.9 0.5-0.6 1.2-2 1.9-2.3 0.1 0.2 0.1 0.4 0.2 0.6-0.4 0.6-1 1.2-1.3 1.9 1.1 0 2.8-0.1 3.6 0.8q0 0.1-0.1 0.3 0-0.1-0.1-0.1c-0.5 0.1-1 0-1.5-0.1q-0.8-0.1-1.5-0.1c-0.7 0-1.5 0.2-2.1 0z"/><path class="M" d="m60.2 36.4l0.1 0.1c-0.1 0.1-0.1 0.1 0 0.2 0 0 0 0.1 0 0.1q0-0.2 0-0.4c0.1-0.4 0-1.5 0.1-1.7v-0.1 0.2-0.1c0.1 0.3 0.1 0.5 0.3 0.7 0.3-0.1 0.6-0.2 0.8-0.1 0.5 0.2 1.1 0.1 1.6 0.4 0.3 0.1 0.5 0.4 0.8 0.5 0.2 0.2 1.1 1.2 1.2 1.5l0.1-0.1c0 0.1 0 0.1 0 0.2 0 0.2-1 2.2-1.2 2.5-0.3 0.5-0.6 0.9-0.9 1.3 0 0.2-0.1 0.3 0 0.5 0.2 0 0.4-0.1 0.5-0.2 1-0.8 1.3-1.9 2.1-2.8 0.5 0.9 1.2 2.8 2.3 3.1q0.2 0 0.4 0c0.1-0.1 0.1-0.1 0.1-0.1-0.2-0.5-1.1-1.3-1.3-1.8v-0.1q0-0.2-0.2-0.3c-0.1-0.1-0.4-0.7-0.4-0.8 0-0.2 0.1-0.2 0.2-0.3 0.3-0.2 0.7-0.2 1-0.3 0.2-0.1 0.4-0.3 0.6-0.3 0.3 0.1 0.2 0.4 0.6 0.2 0.2 0 0.4-0.2 0.5-0.1q0 0 0 0c0.4 0.3 1.2 0.3 1.6 0.6q0 0 0.1 0c0.3-0.1 0.8 0.2 1.1 0.3 0.5 0.1 0.9 0.1 1.4 0.2 0.3 0.1 0.3 0.3 0.7 0.4q0 0 0 0c-0.3 0.2-0.5 0.6-0.8 0.8q-0.1 0.2-0.3 0.3v0.1q0 0 0 0c-0.3 0.4-1.5 0.8-1.7 1.2 0 0 0 0.1 0.1 0.1 0.2 0.1 0.5 0 0.7-0.1 1.1-0.4 2-1.1 2.8-1.8 0.1 1.4 0.3 2.8 1.1 4 0.2 0 0.5 0.1 0.7 0.1 0-0.3-0.2-0.5-0.3-0.7-0.3-0.5-0.6-1.3-0.6-2h0.1c0.1-0.1 0-0.2 0-0.3-0.1-0.5 0-0.9 0-1.4 0.1 0 0.1 0.1 0.2 0.1q0.1 0 0.3 0c0 0.1 0 0.3 0.1 0.5q0 0 0 0.1c0.1 0.1 0.2 0.1 0.4 0.1 0.5 0 0.8-0.3 1.2-0.4 0.5 0.6 0.9 1.1 1.4 1.6 0.5 0.5 3.1 2.4 3.3 2.8 0.2 0.5 1.6 3.2 1.9 3.4-0.1 0.4-0.8 0.8-0.9 1.1q0.1-0.1 0.2-0.1c-0.3 0.4-0.8 1.3-1.2 1.4h-0.1c0-0.3 0.1-0.6 0.1-0.9q0-0.3 0-0.7c-0.1-0.2-0.2-0.4-0.4-0.5 0-0.1 0-0.1-0.1 0-0.2 0.2-0.2 0.4-0.3 0.6v0.2c-0.2 0.5-0.3 1-0.5 1.6l-0.1-0.1c-0.4-0.1-0.8-0.1-1.2 0-0.1 0-0.1-1.2-0.4-1.7q0 0 0 0c-0.2-0.4-0.5-1.5-0.9-1.7-0.1 0-0.1 0-0.1 0-0.2 0.1-0.2 0.3-0.2 0.5 0.1 0.5 0.3 1 0.4 1.5q0.1 0.6 0.1 1.2c-1.7-1.1-3.5-2.3-5.2-3.4-1.5-1-2.9-2.2-4.6-2.8-0.3-0.2-0.6-0.2-0.9-0.1-1.7 0.2-4.2 2.3-5.1 3.6-0.3 0.4-0.5 0.8-0.6 1.3h0.7c0.9-0.8 2.2-1.8 3.4-2 0.5-0.1 0.9-0.1 1.4 0 1.1 0.1 2.2 0.7 3 1.5-1.5 0-3.1 0.2-4.5 0.7-0.7 0.2-1.3 0.6-1.9 0.7-0.6 0.2-1.7 0.2-2.1 0.7-0.4 0.3-0.4 0.9-0.4 1.3q0 0.2 0 0.4c0.4 0.5 1.1 0.7 1.4 1.2 0.4 0.5 0.6 1.2 0.9 1.8 1 2.1 2.7 3.9 5.3 4.1 1.5 0.1 3.3-0.2 4.7-0.7 0.3-0.4 1.5-0.9 2-1.2 0.9-0.6 1.8-1.4 2.6-2.1 0.3 0.2 0.4 0.3 0.8 0.3 0.3-0.1 0.6-0.2 0.9-0.2q0 0 0 0c0.2 0 0.4 0 0.5-0.1 0.2-0.2 0.5-0.6 0.8-0.6 0.4 0.6 1.4 2.2 2.1 2.3q0 0 0.1 0l0.2 0.1c0 0.1 0 0.1-0.1 0.1-0.2 0.3-0.6 0.4-0.9 0.6-0.8-0.5-1.7-0.9-2.7-0.6-1.3 0.4-2.6 2.9-3.5 4-0.5 0.5-1.1 0.7-1.5 1.2-0.1 0.2-0.1 0.6 0.1 0.8 0.1 0.1 0.2 0.1 0.4 0 0.2 0 0.5-0.2 0.7-0.4q1.2 0.6 2.5 1.3c-0.2 0.3-0.1 0.7-0.3 1-0.3 0.5-0.4 1-0.2 1.6 0.2 0.5 0.7 1.2 0.6 1.8-0.2 0-0.2-0.1-0.3 0-1-0.2-2.2-0.7-3.2-1-1.3-0.4-2.7-0.8-4-1.2-1.1-0.4-2.2-0.8-3.3-1.1-1.2-0.4-2.8-0.9-3.9-1.5 0.1-0.6 0-1.2 0-1.7 0-0.4 0.1-0.7 0.1-1.1 0-0.2 0.1-0.6-0.1-0.8-0.1 0-0.2 0.1-0.3 0.1-0.2 0.4-0.5 2.8-0.5 3.3-0.6-0.2-1-0.4-1.5-0.7q0-0.8 0.2-1.6c0-0.4 0.3-0.9 0.3-1.3q-0.1-0.1-0.1-0.1c-0.1-0.1-0.2-0.1-0.2 0-0.5 0.5-0.7 2.1-0.9 2.8-1.3-0.6-2.7-1.1-4.1-1.7q-2.2-0.9-4.3-1.8c-0.9-0.3-1.7-0.7-2.5-1.1-1.3-0.6-3.5-1.4-4.5-2.4-0.6-0.5-0.9-1.3-1.3-1.9q-0.4-0.6-0.8-1.2 0.7 0 1.4-0.1 0.1 0 0.1 0 0.1 0 0.2 0c0.1-0.1 0.4-0.2 0.5-0.3-0.3-0.2-0.8-0.2-1.1-0.2q0.3 0 0.6 0l0.8-0.2q-0.3 0-0.5 0c-0.5 0-1.1 0.1-1.6 0-0.5-0.1-1.1-0.3-1.6-0.3-0.2 0-0.3 0.2-0.4 0.3-0.2 0-0.2 0-0.3-0.1q-0.1-0.1-0.1-0.2c0-0.3 0.1-0.7 0.3-0.9 0.6-0.8 1.4 0.6 2.1 0.6q0.1 0 0.2 0 0.1-0.1 0.2-0.1c-0.2-0.9-2.4-2.9-3.1-3.5-0.3-0.3-1.9-1.5-2.1-1.8h0.1c0.1-0.1 0.6 0.1 0.8 0.1q0.6 0.2 1.2 0.3c0.9 0.1 3.9 0.5 4.6 0.2q0.1 0 0.1 0c0.4-0.1 0.7-0.1 1.1 0 0-0.2-0.4-0.4-0.4-0.7-0.1-0.2 0.1-0.4 0.2-0.5 0.2-0.2 0.8 0 1.1 0l-0.3-0.1c-0.5-0.3-0.8-0.4-1.3-0.5-0.1-0.1-0.2-0.1-0.3-0.3 0.4-0.3 1.4-1.3 1.9-1.5 0.3 0.3 0.4 0.7 0.8 1 0.1 0 0.2 0 0.3 0 0.1-0.5-0.6-3.4-0.8-3.9q-0.3-1-0.7-1.9c-0.1-0.8-0.9-1.6-0.9-2.2h0.1c0.1 0.1 0.2 0.1 0.3 0.2 0.3 0.2 0.4 0.5 0.7 0.5 0.4 0.4 0.7 0.8 1.2 1.2 1 0.9 3.2 2.7 4.6 2.6q0.2 0 0.3-0.1c0.2 0 0.3 0 0.5 0q0.1-0.5 0.1-1-0.1-0.1-0.3-0.3c1.2-0.6 2.4-1.2 3.7-1.6-0.3 0.6-0.3 1.1-0.3 1.7 0.2-0.1 0.4-0.2 0.5-0.3 0.7-0.4 0.8-1.8 0.9-2.6z"/><path class="F" d="m50.7 46.7l0.2 0.1h0.2q-0.1 0-0.1 0c-0.4 0.2-0.6 0.1-0.9 0q0.3-0.1 0.6-0.1z"/><path class="p" d="m82.3 49.2c0-0.3 0-0.7 0.1-1 0.1-0.1 0.1-0.2 0.2-0.2q0.1 0 0.2 0.1c0.2 0.2 0.3 0.6 0.3 1-0.1-0.2-0.2-0.4-0.4-0.5 0-0.1 0-0.1-0.1 0-0.2 0.2-0.2 0.4-0.3 0.6z"/><path class="h" d="m47.3 52.1c0.3-0.1 0.7-0.2 1.1-0.2 0 0.2 0 0.4-0.1 0.6-0.4 0.3-1.5 0.4-2 0.4q0 0-0.1-0.1 0.1 0 0.1 0 0.1 0 0.2 0c0.1-0.1 0.4-0.2 0.5-0.3-0.3-0.2-0.8-0.2-1.1-0.2q0.3 0 0.6 0z"/><path class="y" d="m47.3 52.1c0.3-0.1 0.7-0.2 1.1-0.2 0 0.2 0 0.4-0.1 0.6v-0.1c-0.3-0.1-1.1-0.2-1.4-0.2l-0.4 0.1z"/><path class="z" d="m47.3 44.6c0.4-0.3 1.4-1.3 1.9-1.5 0.3 0.3 0.4 0.7 0.8 1q0 0-0.1 0c-0.3-0.1-0.4-0.3-0.6-0.6-0.1-0.1-0.1-0.1-0.2-0.2-0.1 0.1-1.4 1.1-1.5 1.3q-0.1 0-0.1 0.1c0.1 0.1 0.3 0.2 0.5 0.2q0.2 0 0.4 0l-0.2-0.1c0.1-0.1 0.1-0.1 0.2-0.1 0.2 0.1 1.1 0.5 1.2 0.6 0.3 0 0.6 0.2 0.8 0.5q-0.6-0.2-1.2-0.3l-0.3-0.1c-0.5-0.3-0.8-0.4-1.3-0.5-0.1-0.1-0.2-0.1-0.3-0.3z"/><path class="z" d="m79.5 55.7c0.3 0.2 0.4 0.3 0.8 0.3 0.3-0.1 0.6-0.2 0.9-0.2-0.4 0.1-0.7 0.2-1.1 0.3-0.2 0.1-0.3 0.3-0.5 0.4-0.2 0.1-0.4 0.2-0.6 0.3-0.3 0.1-0.6 0.3-1 0.5-0.2 0.1-0.4 0.1-0.5 0.2-0.5 0.3-2.1 1.4-2.5 1.5h-0.1c0.3-0.4 1.5-0.9 2-1.2 0.9-0.6 1.8-1.4 2.6-2.1z"/><path class="h" d="m51.1 45.9c0.5 0.1 2.6 0.5 2.8 0.8 0 0 0 0.1 0 0.1-0.2 0.2-0.4 0.2-0.7 0.2-0.7 0-1.4-0.1-2.1-0.2h-0.2q0.1-0.1 0.1-0.1c0.3-0.1 0-0.5 0.1-0.8z"/><path class="h" d="m57.3 41.1h0.1q-0.1-0.1-0.2-0.1 0 0 0 0c0-0.2 0.1-0.3 0.2-0.3q0.1 0.1 0.3 0.2l0.1-0.1q0.8 0.4 1.5 0.7c0.4 0.2 0.7 0.3 1.1 0.4q0.1 0.1 0.3 0.3l-0.1 0.1c-0.5 0.2-1.4-0.2-2-0.4-0.4-0.2-0.9-0.4-1.3-0.8z"/><path class="m" d="m55.7 39.5c0.5 0.4 1.6 1 2.1 1.3l-0.1 0.1q-0.2-0.1-0.3-0.2c-0.1 0-0.2 0.1-0.2 0.3q0 0 0 0 0.1 0 0.2 0.1h-0.1q-0.4-0.2-0.9-0.5c0 1.2 0.2 2.5-0.2 3.7-0.1 0.1-0.3 0.4-0.5 0.4-0.1 0-0.1-0.1-0.2-0.1-0.1-0.4 0.1-0.7 0.1-1 0-0.2 0-0.4 0-0.6 0-0.8 0-1.6 0-2.5q0.1-0.5 0.1-1z"/><path class="h" d="m55.6 40.5h0.1q0.1 0 0.2 0c0.2 0.3-0.1 0.6-0.1 0.9-0.1 0.6 0.1 1.5-0.1 2.1q0 0-0.1 0.1c0-0.2 0-0.4 0-0.6 0-0.8 0-1.6 0-2.5z"/><path class="S" d="m48.3 46.7c0-0.2-0.4-0.4-0.4-0.7-0.1-0.2 0.1-0.4 0.2-0.5 0.2-0.2 0.8 0 1.1 0q0.6 0.1 1.2 0.3 0.3 0 0.7 0.1c-0.1 0.3 0.2 0.7-0.1 0.8q0 0-0.1 0.1l-0.2-0.1q-0.3 0-0.6 0.1c-0.2-0.1-0.5-0.3-0.7-0.2 0.1 0.5 0.5 0.9 0.5 1.4 0.1 0.5 0.1 1.7 0 2.1-0.1 0-0.3 0.1-0.4 0-0.3 0-0.5-0.7-0.7-1q-0.1-0.2-0.3-0.4-0.2-0.3-0.6-0.5c-0.1-0.1-0.2-0.1-0.3-0.3 0-0.2 0.7-0.6 0.8-0.9q0 0 0.1-0.1z"/><path class="p" d="m48.5 46.9c0 0.2 0.1 0.3 0.1 0.5-0.1 0.2-0.3 0.3-0.5 0.5q0.3 0.4 0.4 0.8-0.2-0.3-0.6-0.5c-0.1-0.1-0.2-0.1-0.3-0.3 0-0.2 0.7-0.6 0.8-0.9q0 0 0.1-0.1z"/><path class="z" d="m49.9 50.1c-0.1-1-0.2-1.8-0.6-2.8-0.1-0.3-0.3-0.6-0.4-0.9 0.1-0.1 0.1-0.1 0.1-0.2 0.4-0.1 1.3 0.3 1.7 0.5q-0.3 0-0.6 0.1c-0.2-0.1-0.5-0.3-0.7-0.2 0.1 0.5 0.5 0.9 0.5 1.4 0.1 0.5 0.1 1.7 0 2.1z"/><path class="z" d="m45.6 51.4c-0.2-0.9-2.4-2.9-3.1-3.5-0.3-0.3-1.9-1.5-2.1-1.8h0.1c0.1-0.1 0.6 0.1 0.8 0.1q0.6 0.2 1.2 0.3c0.9 0.1 3.9 0.5 4.6 0.2q0.1 0 0.1 0c0.4-0.1 0.7-0.1 1.1 0l0.2 0.2q-0.1 0.1-0.1 0.1c-0.1 0.3-0.8 0.7-0.8 0.9 0.1 0.2 0.2 0.2 0.3 0.3-0.4-0.1-0.9-0.2-1.3 0v0.1l0.1 0.1c0.2 0 0.3 0 0.5 0.1q0.1 0.2 0.1 0.4-0.1 0.1-0.1 0.1c-0.3 0.1-0.7 0.1-0.9-0.1q0 0-0.1 0c0.3-0.1 0.7 0.2 0.9 0 0-0.2 0-0.2 0-0.3q-0.1 0-0.1 0-0.3-0.1-0.5-0.2l-0.1-0.1c0.1-0.1 0.2-0.2 0.4-0.2 0.1-0.1 0.4-0.1 0.5-0.1 0.2-0.1 0.8-0.6 0.9-0.8q0-0.1 0-0.2c0-0.1-0.1-0.2-0.2-0.2-0.3-0.1-0.4 0.2-0.7 0.2-0.5 0.1-1-0.2-1.6-0.1-0.3 0.5-1.1 2.2-1.1 2.8 0.1 0.4 1.1 1.2 1.1 1.7-0.1 0.1-0.1 0.1-0.2 0.1q-0.1 0-0.1 0 0.1-0.1 0.2-0.1z"/></g><path fill-rule="evenodd" class="M" d="m23 90h89c2.2 0 4 1.8 4 4v22c0 2.2-1.8 4-4 4h-89c-2.2 0-4-1.8-4-4v-22c0-2.2 1.8-4 4-4z"/><path fill-rule="evenodd" class="T" d="m23 90h89c2.2 0 4 1.8 4 4v22c0 2.2-1.8 4-4 4h-89c-2.2 0-4-1.8-4-4v-22c0-2.2 1.8-4 4-4z"/><path fill-rule="evenodd" class="T" d="m83 93.5h28c0.8 0 1.5 0.7 1.5 1.5v20c0 0.8-0.7 1.5-1.5 1.5h-28c-0.8 0-1.5-0.7-1.5-1.5v-20c0-0.8 0.7-1.5 1.5-1.5z"/><path class="U" d="m90.2 99.5q0-0.4-0.3-0.6-0.2-0.2-0.8-0.2-0.3 0-0.5 0.1-0.2 0-0.3 0.2-0.1 0.1-0.1 0.3 0 0.1 0 0.2 0.1 0.2 0.2 0.2 0.1 0.1 0.3 0.2 0.3 0.1 0.5 0.1l0.7 0.2q0.7 0.1 1.1 0.4 0.5 0.2 0.8 0.5 0.3 0.3 0.4 0.7 0.2 0.4 0.2 0.8 0 0.8-0.4 1.4-0.4 0.5-1.1 0.8-0.7 0.3-1.8 0.3-1 0-1.8-0.3-0.7-0.3-1.2-1-0.4-0.6-0.4-1.6h2.1q0 0.4 0.1 0.6 0.2 0.3 0.5 0.4 0.3 0.1 0.7 0.1 0.4 0 0.6-0.1 0.2-0.1 0.4-0.2 0.1-0.2 0.1-0.4 0-0.1-0.1-0.3-0.2-0.1-0.4-0.2-0.3-0.1-0.7-0.2l-0.8-0.2q-1.1-0.2-1.7-0.8-0.6-0.5-0.6-1.5 0-0.7 0.4-1.3 0.4-0.6 1.1-0.9 0.8-0.3 1.7-0.3 1 0 1.7 0.3 0.7 0.3 1.1 0.9 0.4 0.6 0.4 1.4zm7 0q-0.1-0.4-0.3-0.6-0.3-0.2-0.8-0.2-0.3 0-0.5 0.1-0.3 0-0.4 0.2-0.1 0.1-0.1 0.3 0 0.1 0.1 0.2 0 0.2 0.2 0.3 0.1 0 0.3 0.1 0.2 0.1 0.5 0.1l0.7 0.2q0.6 0.1 1.1 0.4 0.5 0.2 0.8 0.5 0.3 0.3 0.4 0.7 0.2 0.4 0.2 0.8 0 0.8-0.4 1.4-0.4 0.5-1.1 0.8-0.8 0.3-1.8 0.3-1 0-1.8-0.3-0.8-0.3-1.2-1-0.4-0.6-0.4-1.6h2q0 0.4 0.2 0.6 0.2 0.3 0.5 0.4 0.3 0.1 0.7 0.1 0.3 0 0.6-0.1 0.2-0.1 0.3-0.2 0.1-0.2 0.1-0.4 0-0.1-0.1-0.3-0.1-0.1-0.3-0.2-0.3-0.1-0.8-0.2l-0.8-0.2q-1-0.2-1.6-0.8-0.6-0.5-0.6-1.5 0-0.7 0.4-1.3 0.4-0.6 1.1-0.9 0.8-0.3 1.7-0.3 1 0 1.7 0.3 0.7 0.3 1.1 0.9 0.4 0.6 0.4 1.4zm2.6 5.5v-8h2.2v3.1h2.9v-3.1h2.2v8h-2.2v-3.1h-2.9v3.1z"/><path fill-rule="evenodd" class="V" d="m105.5 113.5c-1.7 0-3-1.3-3-3 0-1.7 1.3-3 3-3 1.7 0 3 1.3 3 3 0 1.7-1.3 3-3 3z"/><path fill-rule="evenodd" class="W" d="m105.5 111.5c-0.6 0-1-0.4-1-1 0-0.6 0.4-1 1-1 0.6 0 1 0.4 1 1 0 0.6-0.4 1-1 1z"/><path fill-rule="evenodd" d="m86 110h12v1h-12z"/><path fill-rule="evenodd" d="m86 108h12v1h-12z"/><path fill-rule="evenodd" d="m86 112h7v1h-7z"/><path class="U" d="m31.3 94.2v5.8h-1.6v-5.8zm5.5 0v5.8h-1.3l-2.1-3.1v3.1h-1.6v-5.8h1.3l2.1 3h0.1v-3zm7.3 2.2h-1.6q-0.1-0.2-0.1-0.4-0.1-0.2-0.2-0.3-0.2-0.1-0.3-0.2-0.2 0-0.4 0-0.4 0-0.7 0.2-0.3 0.2-0.4 0.5-0.2 0.4-0.2 0.9 0 0.5 0.2 0.9 0.1 0.3 0.4 0.5 0.3 0.2 0.6 0.2 0.3 0 0.4 0 0.2-0.1 0.3-0.2 0.2-0.1 0.2-0.3 0.1-0.1 0.2-0.3h1.6q-0.1 0.4-0.3 0.8-0.1 0.3-0.5 0.7-0.3 0.3-0.8 0.5-0.5 0.2-1.1 0.2-0.8 0-1.4-0.4-0.7-0.3-1-1-0.4-0.6-0.4-1.6 0-1 0.4-1.6 0.4-0.7 1-1.1 0.6-0.3 1.4-0.3 0.6 0 1 0.2 0.5 0.1 0.8 0.4 0.4 0.3 0.6 0.7 0.2 0.4 0.3 1zm1.8 3.6h-1.7l1.9-5.8h2.1l2 5.8h-1.7l-1.3-4.2h-0.1zm-0.3-2.3h3.2v1.2h-3.2zm7.9-1.7q-0.1-0.3-0.3-0.5-0.1-0.1-0.5-0.1-0.3 0-0.4 0-0.2 0.1-0.2 0.2-0.1 0.1-0.1 0.2 0 0.1 0 0.2 0.1 0.1 0.2 0.1 0 0.1 0.2 0.2 0.2 0 0.4 0.1l0.4 0.1q0.5 0.1 0.9 0.2 0.3 0.2 0.5 0.4 0.2 0.3 0.3 0.5 0.2 0.3 0.2 0.7 0 0.5-0.3 0.9-0.3 0.4-0.8 0.6-0.6 0.2-1.3 0.2-0.8 0-1.3-0.2-0.6-0.2-0.9-0.7-0.3-0.4-0.3-1.2h1.5q0 0.3 0.1 0.5 0.1 0.2 0.3 0.2 0.3 0.1 0.6 0.1 0.2 0 0.4 0 0.2-0.1 0.2-0.2 0.1-0.1 0.1-0.2 0-0.2 0-0.3-0.1-0.1-0.3-0.2-0.2 0-0.5-0.1l-0.6-0.1q-0.8-0.2-1.2-0.6-0.5-0.4-0.5-1.1 0-0.5 0.3-0.9 0.3-0.5 0.9-0.7 0.5-0.2 1.2-0.2 0.7 0 1.2 0.2 0.5 0.2 0.8 0.7 0.3 0.4 0.3 1zm1.9 4v-5.9h4.2v1.3h-2.6v1h2.4v1.3h-2.4v1h2.6v1.3zm11.7-2.9q0 0.9-0.3 1.6-0.4 0.7-1.1 1-0.6 0.3-1.4 0.3-0.8 0-1.4-0.3-0.7-0.3-1-1-0.4-0.7-0.4-1.6 0-1 0.4-1.7 0.3-0.6 1-1 0.6-0.3 1.4-0.3 0.8 0 1.4 0.3 0.7 0.4 1.1 1 0.3 0.7 0.3 1.7zm-1.6 0q0-0.6-0.1-0.9-0.2-0.4-0.4-0.6-0.3-0.2-0.7-0.2-0.4 0-0.7 0.2-0.2 0.2-0.4 0.6-0.1 0.3-0.1 0.9 0 0.5 0.1 0.8 0.2 0.4 0.4 0.6 0.3 0.2 0.7 0.2 0.4 0 0.7-0.2 0.2-0.2 0.4-0.6 0.1-0.3 0.1-0.8zm2.1 2.9v-5.9h4.1v1.3h-2.5v1h2.3v1.3h-2.3v2.3zm-41.8 8v-5.9h4.2v1.3h-2.6v1h2.4v1.3h-2.4v1h2.6v1.3zm4.8-5.9h1.9l1.4 3.3 1.4-3.3h2v5.9h-1.6v-3.4l-1.3 3.3h-1l-1.2-3.3h-0.1v3.4h-1.5zm7.2 5.8v-5.8h4.2v1.2h-2.6v1h2.4v1.3h-2.4v1h2.6v1.3zm4.7 0v-5.8h2.5q0.7 0 1.1 0.2 0.5 0.2 0.8 0.7 0.3 0.4 0.3 1 0 0.7-0.3 1.1-0.3 0.4-0.8 0.6-0.5 0.3-1.2 0.3h-1.5v-1.3h1.2q0.3 0 0.5 0 0.2-0.1 0.3-0.3 0.1-0.1 0.1-0.4 0-0.2-0.1-0.4-0.1-0.1-0.3-0.2-0.2-0.1-0.5-0.1h-0.5v4.6zm3.4-2.7l1.4 2.7h-1.7l-1.4-2.7zm5.5-1.2q-0.1-0.2-0.1-0.3-0.1-0.1-0.2-0.2-0.2-0.1-0.3-0.1-0.2 0-0.4 0-0.3 0-0.6 0.2-0.3 0.1-0.5 0.5-0.1 0.4-0.1 0.9 0 0.5 0.1 0.8 0.2 0.4 0.5 0.6 0.2 0.2 0.6 0.2 0.4 0 0.6-0.1 0.3-0.1 0.4-0.3 0.1-0.2 0.1-0.5l0.3 0.1h-1.3v-1.2h2.5v0.8q0 0.8-0.3 1.4-0.3 0.6-0.9 0.9-0.6 0.3-1.4 0.3-0.8 0-1.5-0.4-0.6-0.4-1-1-0.3-0.7-0.3-1.6 0-0.7 0.2-1.3 0.2-0.5 0.6-0.9 0.4-0.4 0.9-0.6 0.5-0.2 1.1-0.2 0.5 0 1 0.1 0.4 0.2 0.8 0.4 0.3 0.3 0.5 0.7 0.2 0.3 0.3 0.8zm2.1 3.9v-5.8h4.2v1.2h-2.6v1h2.4v1.3h-2.4v1h2.6v1.3zm9.8-5.8v5.8h-1.3l-2.1-3.1h-0.1v3.1h-1.5v-5.8h1.3l2.1 3v-3zm5.9 2.1h-1.6q0-0.2 0-0.3-0.1-0.2-0.2-0.3-0.2-0.1-0.4-0.2-0.1 0-0.4 0-0.4 0-0.6 0.2-0.3 0.1-0.4 0.5-0.2 0.4-0.2 0.9 0 0.5 0.2 0.9 0.1 0.3 0.4 0.5 0.2 0.2 0.6 0.2 0.2 0 0.4-0.1 0.2 0 0.3-0.1 0.2-0.1 0.2-0.3 0.1-0.1 0.1-0.3h1.6q0 0.4-0.2 0.7-0.1 0.4-0.5 0.7-0.3 0.4-0.8 0.6-0.5 0.2-1.1 0.2-0.8 0-1.4-0.4-0.7-0.3-1-1-0.4-0.7-0.4-1.6 0-1 0.4-1.7 0.3-0.6 1-1 0.6-0.3 1.4-0.3 0.5 0 1 0.1 0.5 0.2 0.8 0.5 0.4 0.3 0.6 0.7 0.2 0.4 0.2 0.9zm0.3-2.1h1.7l1.2 2.3 1.2-2.3h1.7l-2.1 4v1.8h-1.6v-1.8zm-45.9 13.8v-5.8h2.5q0.7 0 1.2 0.1 0.4 0.2 0.6 0.5 0.3 0.4 0.3 0.8 0 0.3-0.2 0.6-0.1 0.3-0.4 0.4-0.2 0.2-0.6 0.3 0.4 0.1 0.7 0.2 0.3 0.2 0.5 0.5 0.2 0.3 0.2 0.7 0 0.5-0.3 0.9-0.2 0.3-0.7 0.6-0.4 0.2-1 0.2zm1.5-1.3h0.8q0.4 0 0.6-0.1 0.2-0.2 0.2-0.5 0-0.2-0.1-0.3-0.1-0.2-0.3-0.2-0.2-0.1-0.4-0.1h-0.8zm0-2.2h0.7q0.2 0 0.3-0.1 0.2-0.1 0.3-0.2 0.1-0.1 0.1-0.3 0-0.2-0.2-0.4-0.2-0.1-0.5-0.1h-0.7zm3.6 3.4v-5.8h2.5q0.6 0 1.1 0.2 0.5 0.3 0.8 0.7 0.2 0.5 0.2 1.1 0 0.6-0.3 1-0.2 0.5-0.7 0.7-0.5 0.2-1.2 0.2h-1.5v-1.2h1.2q0.3 0 0.5-0.1 0.2-0.1 0.3-0.2 0.1-0.2 0.1-0.4 0-0.3-0.1-0.4-0.1-0.2-0.3-0.3-0.2 0-0.5 0h-0.6v4.5zm3.4-2.6l1.5 2.6h-1.7l-1.4-2.6zm1.7 2.6v-5.8h4.1v1.3h-2.6v1h2.4v1.3h-2.4v1h2.6v1.2zm6.3 0h-1.7l1.9-5.8h2.2l1.9 5.8h-1.7l-1.3-4.2zm-0.4-2.3h3.2v1.2h-3.2zm5 2.3v-5.8h1.6v2.3l1.8-2.3h1.8l-1.9 2.6 2 3.2h-1.9l-1.3-2.2-0.5 0.7v1.5zm10.6-3.9q-0.1-0.2-0.2-0.3 0-0.1-0.1-0.2-0.2 0-0.3-0.1-0.2 0-0.4 0-0.4 0-0.6 0.2-0.3 0.2-0.5 0.5-0.1 0.4-0.1 0.9 0 0.5 0.1 0.8 0.2 0.4 0.4 0.6 0.3 0.2 0.7 0.2 0.4 0 0.6-0.1 0.3-0.1 0.4-0.3 0.1-0.2 0.1-0.5l0.3 0.1h-1.3v-1.2h2.5v0.9q0 0.7-0.3 1.3-0.3 0.6-0.9 0.9-0.6 0.3-1.4 0.3-0.8 0-1.5-0.4-0.6-0.3-1-1-0.3-0.7-0.3-1.6 0-0.7 0.2-1.3 0.2-0.5 0.6-0.9 0.4-0.4 0.9-0.6 0.5-0.2 1.1-0.2 0.5 0 1 0.1 0.4 0.2 0.8 0.5 0.3 0.2 0.5 0.6 0.2 0.4 0.3 0.8zm2.1 3.9v-5.8h1.6v4.5h2.4v1.3zm5.8 0h-1.7l1.9-5.8h2.2l1.9 5.8h-1.7l-1.3-4.2zm-0.3-2.3h3.2v1.2h-3.2zm7.8-1.7q0-0.3-0.2-0.5-0.2-0.1-0.6-0.1-0.2 0-0.4 0-0.1 0.1-0.2 0.2-0.1 0.1-0.1 0.2 0 0.1 0 0.2 0.1 0.1 0.2 0.1 0.1 0.1 0.2 0.2 0.2 0 0.4 0.1l0.5 0.1q0.5 0.1 0.8 0.2 0.3 0.2 0.6 0.4 0.2 0.2 0.3 0.5 0.1 0.3 0.1 0.6 0 0.6-0.3 1-0.3 0.4-0.8 0.6-0.5 0.2-1.3 0.2-0.7 0-1.3-0.2-0.6-0.2-0.9-0.7-0.3-0.5-0.3-1.2h1.5q0 0.3 0.1 0.5 0.2 0.1 0.4 0.2 0.2 0.1 0.5 0.1 0.3 0 0.4 0 0.2-0.1 0.3-0.2 0.1-0.1 0.1-0.3 0-0.1-0.1-0.2-0.1-0.1-0.3-0.2-0.2-0.1-0.5-0.1l-0.6-0.1q-0.8-0.2-1.2-0.6-0.4-0.4-0.4-1.1 0-0.5 0.3-1 0.3-0.4 0.8-0.6 0.5-0.2 1.2-0.2 0.7 0 1.2 0.2 0.5 0.2 0.8 0.7 0.3 0.4 0.3 1zm5.1 0q0-0.3-0.2-0.5-0.2-0.1-0.6-0.1-0.2 0-0.4 0-0.1 0.1-0.2 0.2-0.1 0.1-0.1 0.2 0 0.1 0 0.2 0.1 0.1 0.2 0.1 0.1 0.1 0.2 0.2 0.2 0 0.4 0.1l0.5 0.1q0.5 0.1 0.8 0.2 0.3 0.2 0.6 0.4 0.2 0.2 0.3 0.5 0.1 0.3 0.1 0.6 0 0.6-0.3 1-0.3 0.4-0.8 0.6-0.5 0.2-1.3 0.2-0.7 0-1.3-0.2-0.6-0.2-0.9-0.7-0.3-0.5-0.3-1.2h1.5q0 0.3 0.1 0.5 0.2 0.1 0.4 0.2 0.2 0.1 0.5 0.1 0.3 0 0.4 0 0.2-0.1 0.3-0.2 0.1-0.1 0.1-0.3 0-0.1-0.1-0.2-0.1-0.1-0.3-0.2-0.2-0.1-0.5-0.1l-0.6-0.1q-0.8-0.2-1.2-0.6-0.4-0.4-0.4-1.1 0-0.5 0.3-1 0.3-0.4 0.8-0.6 0.5-0.2 1.2-0.2 0.7 0 1.2 0.2 0.5 0.2 0.8 0.7 0.3 0.4 0.3 1z"/><path class="M" d="m102.3 112l3.7 1.5-2.3 5.8-1.4-1.9-2.3 0.4z"/><path class="T" d="m102.2 116.9l-1.4 0.3 1.8-4.5 2.8 1.1-1.8 4.5-0.9-1.2-0.2-0.3z"/><path class="V" d="m108.8 117.1l-0.7 1.2-2.4-4.1 2.6-1.5 2.4 4.1h-1.5-0.3z"/><path class="X" d="m103 40.6q0 0 0 0zm-0.2-0.3c0.1 0.2 0.2 0.2 0.2 0.3 0 0-0.1 0.1-0.2 0.2q-0.4 0.3-1.2 0.5c-1.1 0.4-2.7 0.6-4.4 0.6-1.8 0-3.3-0.2-4.4-0.6q-0.9-0.2-1.2-0.5c-0.2-0.1-0.2-0.2-0.2-0.2 0-0.1 0-0.1 0.2-0.3q0.3-0.2 1.2-0.5c1.1-0.4 2.6-0.6 4.4-0.6 1.7 0 3.3 0.2 4.4 0.6q0.8 0.3 1.2 0.5zm-11.4 0.3q0 0 0 0zm0 0q0 0 0 0zm11.6 0q0 0 0 0z"/><path class="X" d="m99.8 32.2q0 0 0 0zm-0.2-0.2c0.1 0.1 0.2 0.2 0.2 0.3 0 0-0.1 0.1-0.2 0.2q-0.4 0.3-1.2 0.5c-1.1 0.4-2.7 0.6-4.4 0.6-1.8 0-3.4-0.2-4.5-0.6q-0.8-0.2-1.2-0.5c-0.1-0.1-0.2-0.2-0.2-0.2 0-0.1 0.1-0.2 0.2-0.3q0.4-0.3 1.2-0.5c1.1-0.4 2.7-0.6 4.5-0.6 1.7 0 3.3 0.2 4.4 0.6q0.8 0.2 1.2 0.5zm-11.5 0.2q0 0 0 0zm0 0.1q0 0 0 0zm11.7 0q0 0 0 0z"/><path class="X" d="m85.7 30c0 0-0.1 0.2-0.5 0.5q-0.5 0.4-1.7 0.8c-1.6 0.5-3.8 0.9-6.3 0.9-2.5 0-4.7-0.4-6.3-0.9q-1.2-0.4-1.7-0.8c-0.4-0.3-0.5-0.5-0.5-0.5 0-0.1 0.1-0.3 0.5-0.6q0.5-0.4 1.7-0.8c1.6-0.5 3.8-0.8 6.3-0.8 2.5 0 4.7 0.3 6.3 0.8q1.2 0.4 1.7 0.8c0.4 0.3 0.5 0.5 0.5 0.6z"/><path fill-rule="evenodd" class="X" d="m104.1 42.4c-1.3 0-2.4-1-2.4-2.3 0-1.3 1.1-2.3 2.4-2.3 1.3 0 2.3 1 2.3 2.3 0 1.3-1 2.3-2.3 2.3z"/><path fill-rule="evenodd" class="X" d="m108.5 50.4c-1.3 0-2.3-1-2.3-2.3 0-1.3 1-2.4 2.3-2.4 1.3 0 2.4 1.1 2.4 2.4 0 1.3-1.1 2.3-2.4 2.3z"/><path fill-rule="evenodd" class="X" d="m105 58.4c-0.8 0-1.5-0.7-1.5-1.5 0-0.8 0.7-1.4 1.5-1.4 0.8 0 1.4 0.6 1.4 1.4 0 0.8-0.6 1.5-1.4 1.5z"/><path class="Y" d="m93.5 16.5q0 0 0 0zm0 0q0 0 0 0 0 0 0 0-0.1 0.1-0.4 0.3-0.5 0.3-1.6 0.6c-1.4 0.4-3.5 0.8-6.2 1.1-5.3 0.6-12.7 1-20.8 1-8.1 0-15.5-0.4-20.8-1-2.7-0.3-4.8-0.7-6.2-1.1q-1.1-0.3-1.7-0.6-0.2-0.2-0.3-0.3 0 0 0 0 0 0 0 0 0.1-0.1 0.3-0.3 0.6-0.3 1.7-0.6c1.4-0.4 3.5-0.8 6.2-1.1 5.3-0.6 12.7-1 20.8-1 8.1 0 15.5 0.4 20.8 1 2.7 0.3 4.8 0.7 6.2 1.1q1.1 0.3 1.6 0.6 0.3 0.2 0.4 0.3zm-58 0q0 0 0 0zm0 0q0 0 0 0zm58 0q0 0 0 0z"/><path class="M" d="m149.8 65q-0.1-0.9-0.6-1.3-0.6-0.5-1.7-0.5-0.8 0-1.2 0.2-0.5 0.1-0.7 0.4-0.2 0.3-0.3 0.7 0 0.3 0.2 0.6 0.1 0.2 0.4 0.4 0.3 0.2 0.7 0.4 0.5 0.2 1.1 0.3l1.4 0.3q1.5 0.3 2.5 0.8 1 0.5 1.7 1.2 0.7 0.7 1 1.5 0.3 0.9 0.3 1.9 0 1.7-0.9 2.9-0.8 1.2-2.4 1.8-1.6 0.6-3.8 0.6-2.3 0-4-0.7-1.7-0.6-2.6-2-0.9-1.4-0.9-3.6h4.5q0 0.8 0.4 1.3 0.3 0.6 1 0.8 0.6 0.3 1.5 0.3 0.8 0 1.3-0.2 0.5-0.2 0.8-0.5 0.2-0.3 0.2-0.7 0-0.4-0.2-0.7-0.3-0.4-0.8-0.6-0.6-0.2-1.6-0.5l-1.7-0.3q-2.3-0.5-3.7-1.7-1.3-1.2-1.3-3.2 0-1.7 0.9-2.9 0.9-1.3 2.5-2 1.6-0.7 3.7-0.7 2.1 0 3.6 0.7 1.6 0.7 2.4 2 0.8 1.3 0.8 3zm15.3 0q-0.1-0.9-0.6-1.3-0.6-0.5-1.7-0.5-0.8 0-1.2 0.2-0.5 0.1-0.7 0.4-0.2 0.3-0.3 0.7 0 0.3 0.2 0.6 0.1 0.2 0.4 0.4 0.3 0.2 0.7 0.4 0.5 0.2 1.1 0.3l1.4 0.3q1.5 0.3 2.5 0.8 1 0.5 1.7 1.2 0.7 0.7 1 1.5 0.3 0.9 0.3 1.9 0 1.7-0.9 2.9-0.8 1.2-2.4 1.8-1.6 0.6-3.8 0.6-2.3 0-4-0.7-1.7-0.6-2.6-2-0.9-1.4-0.9-3.6h4.5q0 0.8 0.4 1.3 0.3 0.6 1 0.8 0.6 0.3 1.5 0.3 0.8 0 1.3-0.2 0.5-0.2 0.8-0.5 0.2-0.3 0.2-0.7 0-0.4-0.2-0.7-0.3-0.4-0.8-0.6-0.6-0.2-1.6-0.5l-1.7-0.3q-2.3-0.5-3.7-1.7-1.3-1.2-1.3-3.2 0-1.7 0.9-2.9 0.9-1.3 2.5-2 1.6-0.7 3.7-0.7 2.1 0 3.6 0.7 1.6 0.7 2.4 2 0.8 1.3 0.8 3zm5.9 12v-17.5h4.7v6.9h6.3v-6.9h4.8v17.5h-4.8v-6.8h-6.3v6.8zm29.3-1.9h-4.3l-3.5-5.1v-0.2h4.5zm0-10.4l-3.3 5.3h-4.5v-0.2l3.5-5.1zm6.4 10.4h-4.3l-3.4-5.1v-0.1h4.5zm0-10.5l-3.3 5.3h-4.5v-0.2l3.5-5.1zm1.3 12.3v-17.4h7.6q2 0 3.3 0.5 1.4 0.6 2.1 1.5 0.7 1 0.7 2.3 0 1-0.4 1.8-0.4 0.8-1.2 1.3-0.8 0.6-1.8 0.8v0.1q1.2 0.1 2.1 0.6 0.9 0.5 1.4 1.4 0.6 1 0.6 2.2 0 1.4-0.8 2.5-0.7 1.2-2.1 1.8-1.4 0.6-3.3 0.6zm4.8-3.8h2.2q1.2 0 1.8-0.4 0.6-0.4 0.6-1.3 0-0.6-0.3-1.1-0.3-0.4-0.8-0.6-0.5-0.2-1.2-0.2h-2.3zm0-6.6h1.9q0.6 0 1.1-0.2 0.5-0.2 0.8-0.6 0.2-0.4 0.2-0.9 0-0.8-0.5-1.3-0.6-0.4-1.5-0.4h-2zm10.6 10.4v-17.4h7.5q1.9 0 3.4 0.7 1.4 0.7 2.3 2 0.8 1.3 0.8 3.2 0 1.9-0.9 3.1-0.8 1.3-2.3 2-1.5 0.6-3.5 0.6h-4.5v-3.6h3.6q0.8 0 1.4-0.2 0.6-0.3 0.9-0.7 0.3-0.5 0.3-1.2 0-0.8-0.3-1.2-0.3-0.5-0.9-0.7-0.6-0.3-1.4-0.3h-1.7v13.7zm10.2-8l4.4 8h-5.2l-4.2-8zm5.1 8v-17.4h12.5v3.8h-7.8v3h7.2v3.8h-7.2v3h7.8v3.8zm18.8 0h-5.2l5.8-17.4h6.5l5.7 17.4h-5.1l-3.8-12.6h-0.1zm-1-6.9h9.6v3.5h-9.6zm14.8 6.9v-17.4h4.8v7h0.2l5.2-7h5.6l-5.9 7.7 6 9.7h-5.7l-3.9-6.5-1.5 2v4.5zm25.1-10.5v3.6h-8.2v-3.6zm13.3-1.2q-0.1-0.4-0.3-0.8-0.3-0.3-0.6-0.6-0.4-0.2-0.8-0.3-0.5-0.2-1.1-0.2-1.2 0-2 0.6-0.8 0.6-1.3 1.7-0.4 1-0.4 2.5 0 1.6 0.4 2.7 0.4 1.1 1.2 1.6 0.9 0.6 2.1 0.6 1.1 0 1.8-0.3 0.7-0.3 1.1-0.9 0.3-0.6 0.3-1.4l0.9 0.1h-4v-3.3h7.7v2.4q0 2.4-1 4.1-1 1.6-2.8 2.6-1.7 0.8-4 0.8-2.6 0-4.5-1-1.9-1.1-3-3.1-1.1-2-1.1-4.8 0-2.2 0.7-3.8 0.6-1.7 1.8-2.8 1.2-1.2 2.7-1.8 1.6-0.6 3.3-0.6 1.6 0 2.9 0.5 1.4 0.4 2.4 1.2 1 0.8 1.6 1.9 0.7 1.1 0.8 2.4zm6.5 11.7v-17.4h4.7v13.6h7.1v3.8zm17.5 0h-5.1l5.8-17.4h6.4l5.8 17.4h-5.1l-3.8-12.6h-0.2zm-0.9-6.9h9.6v3.5h-9.6zm23.5-5.1q-0.1-0.8-0.6-1.3-0.6-0.5-1.7-0.5-0.8 0-1.2 0.2-0.5 0.1-0.7 0.4-0.3 0.3-0.3 0.7 0 0.3 0.2 0.6 0.1 0.2 0.4 0.5 0.3 0.1 0.7 0.3 0.5 0.2 1.1 0.3l1.4 0.3q1.5 0.3 2.5 0.8 1 0.5 1.7 1.2 0.6 0.7 1 1.5 0.3 0.9 0.3 1.9 0 1.7-0.9 2.9-0.8 1.2-2.4 1.8-1.6 0.6-3.8 0.6-2.3 0-4-0.7-1.7-0.6-2.6-2-0.9-1.4-0.9-3.6h4.5q0 0.8 0.4 1.3 0.3 0.6 1 0.8 0.6 0.3 1.5 0.3 0.8 0 1.3-0.2 0.5-0.2 0.8-0.5 0.2-0.3 0.2-0.7 0-0.4-0.2-0.7-0.3-0.3-0.8-0.6-0.6-0.2-1.6-0.4l-1.7-0.4q-2.3-0.5-3.7-1.7-1.3-1.2-1.3-3.2 0-1.7 0.9-2.9 0.9-1.3 2.5-2 1.6-0.7 3.7-0.7 2.1 0 3.6 0.7 1.6 0.7 2.4 2 0.8 1.3 0.8 3zm15.3 0q-0.1-0.8-0.6-1.3-0.6-0.5-1.7-0.5-0.8 0-1.2 0.2-0.5 0.1-0.7 0.4-0.3 0.3-0.3 0.7 0 0.3 0.1 0.6 0.2 0.2 0.5 0.5 0.3 0.1 0.7 0.3 0.5 0.2 1.1 0.3l1.4 0.3q1.5 0.3 2.5 0.8 1 0.5 1.7 1.2 0.6 0.7 1 1.5 0.3 0.9 0.3 1.9 0 1.7-0.9 2.9-0.8 1.2-2.4 1.8-1.6 0.6-3.8 0.6-2.3 0-4-0.7-1.7-0.6-2.6-2-0.9-1.4-0.9-3.6h4.5q0 0.8 0.4 1.3 0.3 0.6 1 0.8 0.6 0.3 1.5 0.3 0.8 0 1.3-0.2 0.5-0.2 0.8-0.5 0.2-0.3 0.2-0.7 0-0.4-0.2-0.7-0.3-0.3-0.8-0.6-0.6-0.2-1.6-0.4l-1.7-0.4q-2.3-0.5-3.7-1.7-1.3-1.2-1.3-3.2 0-1.7 0.9-2.9 0.9-1.3 2.5-2 1.6-0.7 3.7-0.7 2.1 0 3.6 0.7 1.6 0.7 2.4 2 0.8 1.3 0.8 3zm5.7 10.1l3.3-5.3h4.5v0.2l-3.5 5.1zm0-10.4h4.3l3.5 5.1v0.1h-4.5zm6.6 10.5l3.2-5.3h4.5v0.2l-3.4 5.1zm0-10.5h4.3l3.4 5.2v0.1h-4.5z"/></svg>